<svg xmlns="http://www.w3.org/2000/svg" version="1.0" viewBox="0 0 602 796">
   <path
      d="M510 25q-18 18-24 21c-11 6-1 6-177 6l-174-1c-21-1-21-1-45-25L71 7l-5 4-22 24L8 75l37 36c17 15 21 19 23 24l2 5v319l-1 330q1 2 11-10 8-9 10-9 1 1 3-1l9-5q13-6 19-4 1 2 4-3 4-8 10-7l5-2c4-3 26-12 29-12l8-3q6-3 9-2t8-3l6-3q6-1 15-8l17-12q21-10 30-17 9-6 11-5l3-1 5-5 12-8q11-11 15-11 5 1 21 13l10 8 5 5 8 6 7 6 9 7q9 5 10 2 3-4 7 1c4 4 34 18 41 20q3 0 5 3 4 5 13 6l12 4 15 6 31 16q2 1 2-2l-1-4q-2-3 1-1l5 4 21 15c1-1 8 2 10 4q3 5 2-4l-1-19-4-73a29384 29384 0 0 1-2-497v-53l4-3 26-24 27-24 4-4-20-21-47-48zm24-5 4 5a528 528 0 0 1 48 49l-5-1h-5l-2 1q0-2-8-2c-3-1-4-2-11-9l-23-23q-4-3-4-7l1-9 1-7q0-3 2 0zM77 23l6 5 6 4 21 22-6-1h-2l-2-1 1-1h2q1-1-2-1l-3 1-2 1v1l7 5q7 4 5 4h-2l-1 1-1 2-1 1h2l1 2q0 3 1 1l4-1 5-1-1-2q-3-5 5 0c5 2 6 2 23 3h18l-1 1-3 2h-6c-3 2-30 2-32 0h-7l-7-1-17-16-16-15-8 6-8 8-2 2 2-3 8-9q8-7 6-8t1-1q3 1 1-2l-2-3 1-7q0-7 1-4zm4 1-2-1q-1-1 0 0zm447 16-4 4q-6 6 0-2zM73 53v3l1 4q1 5 2 3l3 3 2 4v-1l1-2 1 1 1 1q3 1 1-1-1-2 2 1l3 3h-2l-4 1-5 1-4 1h-3l-3-2-5-1-5-1 3-1q8 1 8-10 2-8 1-10h1zm461 7 1 10h1l1-2h2q3 2 2-1l2 2q4 3 1 3l-3 1h-4l-3 2q-3 5-3 0 1-2-2-3l-3 1h-5l-6-1 3-3q5-5 4-2v2l1-1 1-1h3v1l2-2v-3l1-7q0-7 1-6zM44 52l-1 1-2-1zm9 5L39 70q-3 4-4 1v-3l1 1q0 2 2 0l2-2 5-4 5-4 2-2 1-2zm58 2-1 1v-1l-2-1-2-1h2zm183 6-6 1 4-2q3 0 2 1m6 0h-2q-2-1 1-1zm78 2h-2v-1zm-168 1 72 1-1 2c-1 2-4 2-31 2h-92l3-3 18-2zm107 1 3 1h2q1-2 25-2c14 0 17 0 18 2h2l3-2 5 1h2q5-3 2 2-3 4-6 2h-43l-44-1q-2-1 2-3l15-1zm108-1 38-1q16 0 13 3l-2-1-2-1v1q2 1-1 1h-5q-3 0-1 1l-5 1q-7 0-4-2h-3l-5 2-67-1 2-2 5-1 7-1 1 1zm71 0h-2v-1zM28 69q2 1-3 1l-4-1zm542 4-1 1v-1zm-17 17-13 12 13-14zM75 118l-2-1q-1-2 0 0 2 0 1 1m0 3-1 1-2-1 1-1zm448 30-1 2-1-1 1-1zm-1 11-1 1-1-1v-1zm1 5-1 1-1-2q0-3 1-1zm-3 14 1 2v1h2l1 2-1 5 1 4 1 1-2 2q-2 0-2 2 0 3-1 1l-2-5c-1-4 0-20 1-17zm4 26v9l-1 3-1 2h-2l-1 1-1-9-1-9h3l3-1zm-2 19-1 1v-3l2-2zm-2 3v1l-2-2h1zm0 6 1 2 1 3c2 4 2 12 1 12l-1-1-1-1 3 9v1l-2 2q-2 3-3 2v-3q-3 0-2-12c1-16 1-15 2-14zl1-1zm-431 3 2 6 1 7 1 7v7l1 4q0 6-1 1-1-6-1 0l1 4q1-1 1 1t-1 1-1 3l1 4v1l-1 5-1 5v3l1 3v2l-3-1q-2-2-1 1l2 1 2 1-1 1q-2-1 0 2 2 1 1 5l1 4q1-2 1 12v7q3 21 1 20l-1 1 1 1c1-1 1 3 1 43l-1 31c-2 1-4 8-2 8l1 2 2 2 1 1-1 3q0 4 1 2h1l-3 2q-3 1 0 1 4 0 1 1l-2 2h2l1 1-1 3-1 2h1l1-1-1 10 1 1v15l-1-1-1-2v3l2 2 1 7q0 9-5 8-3 0-2-1 0-3 2-1 4 3 2-2-1-5-2-1l-2-1q-3-1-1-7l2-1q1 2 1-1v-7q-1-7 3-2 1 2 1-2l-1-3-4 2-3-1q1-2 0 0l-2-1q0-3 4-2 2-1-1-3l2-1q6-1 0-4l-1-2-1-3q-2-6 1-8l1-1-2-1q-2 2-2-3l-1-7 1-5c1-2 1-36-1-36l-1-2h1v-22l2-1q1-3 2-1 0 2 1 0l2-1 1-6-1-6v5l-1 3-1-1-1-2v-2c1 1 3-4 1-5v1c0 4-6 0-7-5q-2-3 1-2 1 2 0 0l1-2v-1l-1-9q0-11 1-9 4-1 1-3h-1v1l-1-38v-38l1-15zm434 36v2q-2 2 1 1l1 1-2 1-2 2v2l1-1q1-1 1 6l-2 7q-5-2-4-11v-8q0-4 3-3zM93 294q-1 1-1-1 0-3 1-1zm427 16 1 10 2 7 1 8-1 13q0 8-2 5h-1l2 2 1 2-1 1q-2-1-2 1l2 2q2 1 0 9l-1 3-3-2q-4-2-1-3 2-4-1-4-2 3-1-16v-21q0-6 1-1t1-3l2-2q2-1-1-1-4 2-3-7 0-8 2-7 3-2 3 4m-427 2q-1 1-1-1 0-3 1-1zm424 64 1 10v-5q0-4 1-3c1 2 0 10-2 12v2q3 0 1 3v3q2-1 1 4l1 6q2 3-1 2l-4 2-2 2v-2l1-3 2-1v-2h1l1-1-1-2-1-2zm-411 10q-1 1-1-2 0-4 1-2zm6 7 1-2zm0 20q-1 3-1-4 0-9 1-4zm-5 0q-1 3-1-1t1-3zm414 9 1 95q1 6-1 6l-1 2 1 1c1-1 1 0 1 13v26q1 13-1 12l1 2v3c-2-2-3 13-1 18l2 4-2-1-1 1 1 1v39l1 26v16l-1 4q0 4-4 3v3l4-2 2-3v9q-1 8 1 8v12q2 12-1 13l-2 2q-1 1-2-2-1-4-4-6-3-3-2-14l1-12 1-10 1-1 1 2q3-1-1-6l-1-17v-12l1 3v-6q-3-22-2-23 2-1-1-6l1-2 1-2-1-2-1-5 1-6-1-20v-1l1-27-1-26q0-5 2-4l1-10v-17c-1 0-2-5-2-23q0-30-1-21-1 1-1-3l1-5 1 2q0 3 1 1v-2l-1-4-1-2-1-2q0-3 1-1l1-2-1-4-1-8q0-8 2-9 5-3 7 2m-414 12 1-2zm-13 1v1l1 2v2l-2-2q-3-4 0-5zm19 9q-1 4-1-3 0-9 1-5zm-6-5 1-2zm0 24q-1 4-1-4 0-10 1-4zm6-8q-1 1-1-1 0-3 1-1zm0 8q-1 1-1-1 0-3 1-2zm400 16q-1 3-1-5c0-8 0-7 1-5zm-406-6q-1 2-1-1 0-5 1-3zm0 20q-1 5-1-5 0-13 1-7zm-19-13-2 1v-2q3-3 2 1m25 5 1-2zm-24 13-1 1-1-1v-1zm20 7q4-1-1 2-3 2-2-3 0-4 1-1 0 3 2 2m-13 5q0 6-1 1l-1-4v4l1 4-2 2q-3 2-1-1l1-3h-1q-2 3-2-2l2-4q2-1-1-1h-2l6-2zm417 5-1-3 1-3zm0 7q-1 1-1-1 0-3 1-1zm-421 8-2-2q-2-3 1-1zm-3 3q-2 1-1-2h1zm1 2-1-1v-1zm5 3q-1 1-1-1 0-3 1-1zm408 2 1-2zm0 7-1-2q0-3 1-2zm0 17q-1 1-1-2 0-4 1-2zm-415 6-1 4-1-1 2-4zm6-2v-2zv3l-1 2-1 3-1 2-1 2q-3 1 1-6 2-2-1-4v-3zq1 3 1 0m2 13-1-2 1-3zm-7-6-1 2h-1zm414 4q1 3-2 2v-1l1-2 1-2zm-389 7q-1 1-1-1 0-3 1-2zm-18 4q0 6-1 2l-1-4-1 1q1 5-2 3-2-1-1-4 0-3 3-4h3zm427-3 1-2zm-434 7q-2 7-2 0 0-4 1-3zm7 11q0 11-1 3v-9q1-8 1 6m-3-5q-1 2-1-1t1-1zm-6 8q-1 1-1-2 0-4 1-2zm4-2 1-2zm2 2q0 7-2 6v-1l1-3v-2q1-4 1 0m-4 10-1 1-1-3q0-4 1-1zm7 26c0 16 0 28-1 27q-1-4-2 1l1 2q2 0 2 3t-1 2l-1-2-1 2v6l1 3c3-2 3 8 0 11q-3 3-1-1v-3l1-1q1 1 1-2l-1-3c-1 0-3 6-2 9l2 13 6 5c5-2 4 10-1 16h-2c-1-2-6-1-6 1h-1q-2-3-2 0l-2 2-1-1v-2h-2l-1-3 1-7q2-5 1-7t1-2v-2l-1-3 1-8v-10l-1-5v-6q-1-1 1-6v-6l1-5 1-13v-4l-1-6-1-4q-1-4 2-5h3l1 1v-1q-3-3 1-4 1-2 1 1v8l1 6 1-13v-13zm-4-24-1 1v-2q1-3 1 1m1 3-2 1-2 2-1 2q-1 1-1-2 0-4 2-4zm219 2h-4v-1q3-1 4 1m1 7-1 2-1-1 1-1zm-1 5 1-2zm-63 26q-3 2-1 2v1c-2 0-3-4-1-4q4-2 2 1m273 4q-1 2-1-1 0-4 2-1zm-121 10h-2v-1zm-12 2h-2v-1zm27 2q3 0 0 1-6 1-5-1l2-1zm-320 3q-1 1-1-1 0-3 1-1zm18 7q-1 3-1-2 0-6 1-4zm-7-1q-1 1-1-2 0-4 1-2zm315-4-2 1h-2l2-1zm-16 3-1 2-1-1-2-1-1-1q3-1 5 1m9 0v4q-3 0 0 2l-2-1q-6-2-3-5 4-3 4 0m14-1c-1 3 4 4 5 1q2-4 1 1l1 3h2l3 2q4 0-2 2l-3-1-1-2-2 1-1 2-3-2q0-3-2-2-3 0-1-1v-3l1-2zm22 2h-2q-1-1 1-1 3-2 1 1m48 1 1 3v-1q0-2 2-2 3-1 1 2l1 4q2 4-2 2l-1-3-1-1q-3 0 3 6 3 2 2 3v1q2 2-2 8l-1 3q3-1 3 6 0 3 1 2 1-6 2-2l2 5 2 3 2 4q4 4-1 0l-2-4-2-1-2-1q-1-2-1 1 1 3-4 1l-2-2 2-2 1-3q2-2 0 0-1 1-3-2v-3l-3 2-3 1q1-2-1-1l-2 1c0 2-5 1-7-1l-1-2v2q2 2-3 3-4 2-2-1l1-2-1-3q-2-3-3 0c0 3-5 2-6-2q-1-4-4-3l-3-1-5-3-5-2-4-2-1-2q2-2-1-3l1-1h4l5 1q3-1 6 2l4 3v-2l-1-2h2l3 1 2-1-2-1q-3-3 3-1 3 1 2 3l1 3q1 1 1-3-1-3 11 3l9 4 1-9q-1-11 2-11zm-79-1v1l-1-1v-1zm41 4-1-2q1-2 1 1m-347 4-1 1v-1l1-1zm1 6v2c1 2-3 5-4 4l1-2 1-4 1-2zm6 0q-3 2-1 2l2 1h-3q-5-2 1-4t1 1m-10 5-1 2-1 2-2 2v-4q3-8 4-2m51-1v1l-2-1 1-1zm-4 3-3 2q0-2 2-2 4-3 0 0m6 0-2 1v-1zm343 3v-1l1-2zm-355 0-1 1-1-1 1-1zm-4 2-2 1-2-1 2-1zm-32 3-2 3v1q2 0 2 3l-1 2h-3v-9l3-3zm12-2-1 2-1-1 1-1zm4 1 1 3-1 1h-2q-3 2-3-1h1l1-2q0-3 3-1m13 1h-2q-2-1 1-1t1 1m-8 1v1l-2-1 1-1zm5 1h-2v-1zm347 5q-1 2 0 0 0-2 1-1t-1 1m-376 7h-1q0-2 2-1zm-20 6h-3l2-1q3 0 1 1" />
   <path
      d="M553 51h2v-1q-3-2-2 0m5 7q4 4 6 3 2 0-1-1l-3-2-1-2h-2l-1-2zm6-1-1 1h-1l3 1q3 0 1-2zm7 7 2 1q3 0 1-1zM90 47l2 2h2l-2-2zm428 169 1 1q2-1 0-2zm0 29-1 1h1zm0 4v1l2-1zM86 270l2 3q2 2-1-3-3-3-1 0m5 72v1l1-1v-1zm2 4v-2zm-3 34v1l1-1v-1zm4 111v1l2-1v-2zm-3 2q0 2 1 1v-2q-1-1-1 1m2 1 1 1 1-2h-1zm258-223q-5 2-8 9c-5 12-7 56-3 77q4 21 10 26 11 5 18-12c3-10 4-19 4-44 0-26 0-33-5-46q-2-9-6-9-6-3-10-1m10 108-3 2q-3 2 0-1 5-3 3-1M254 258h2q1-1-1-1-3 0-1 1m263 77q0 5 1 2v-4q-1-3-1 2m0 22v-2zm3 7 1 1h1l-1-1zm-4 137v-2zm1 140v-2zm-431-7 1 2 1-3-1-1zm2 5 1 1 1-2h-1zm5 5 1 4q1 5 1-1 0-7-2-3m-4 47v4l-2 3q0 3 1 1c2-2 3-10 1-10zm-1 13q-1 2 1 1l1-1q-1-2-2 0m374 1 1 1zq-3-3-1 1m40 4v-2zm-33 5 1 1 1-1-1-1zm23 0 1 1 1-1-2-1zm-9 1q-2 2 1 2t3-2zm13 0 1 1 1-1-2-1z" />
</svg>