<?xml version="1.0" standalone="no"?>
<!DOCTYPE svg PUBLIC "-//W3C//DTD SVG 20010904//EN"
 "http://www.w3.org/TR/2001/REC-SVG-20010904/DTD/svg10.dtd">
<svg version="1.0" xmlns="http://www.w3.org/2000/svg"
 width="523.000000pt" height="785.000000pt" viewBox="0 0 523.000000 785.000000"
 preserveAspectRatio="xMidYMid meet">

<g transform="translate(0.000000,785.000000) scale(0.100000,-0.100000)"
fill="#000000" stroke="none">
<path d="M608 7747 c-37 -39 -182 -191 -323 -337 l-256 -265 290 -285 289
-285 15 -60 c23 -91 28 -552 27 -2875 0 -1799 -10 -3213 -24 -3475 -3 -54 0
-90 9 -110 12 -27 14 -28 20 -10 3 11 18 28 33 37 15 9 63 43 106 74 44 31 92
64 107 73 14 9 53 32 85 52 203 126 263 158 382 211 73 32 139 58 147 58 22 0
189 83 211 104 6 6 27 20 48 31 31 17 38 18 45 6 7 -11 29 -2 108 44 121 72
168 97 307 166 38 19 87 51 109 71 41 41 67 48 67 21 0 -11 12 -2 36 25 19 23
41 42 48 42 7 0 23 11 36 25 13 14 28 25 32 25 5 0 24 11 42 25 18 14 37 25
43 25 5 0 20 11 32 24 13 14 32 23 45 22 24 -3 98 -52 150 -101 18 -16 52 -41
75 -55 24 -14 57 -37 75 -51 57 -47 145 -100 181 -110 20 -6 42 -21 52 -37 9
-15 32 -44 50 -65 18 -20 33 -43 33 -49 0 -7 7 -3 15 9 l16 22 52 -33 c29 -18
104 -52 167 -75 63 -24 138 -56 165 -71 28 -15 94 -42 148 -60 82 -28 104 -40
137 -76 22 -24 42 -39 45 -33 12 18 41 9 70 -21 16 -17 33 -30 38 -30 5 0 32
-20 59 -45 28 -25 66 -53 85 -62 19 -8 45 -31 59 -49 23 -29 72 -52 98 -45 5
1 17 -6 27 -15 11 -9 19 -12 19 -6 0 6 -4 14 -10 17 -10 6 -14 45 -4 45 14 0
50 -25 67 -47 10 -13 24 -29 30 -36 7 -6 25 -29 40 -50 34 -45 50 -39 43 16
-9 68 -25 431 -42 942 -13 386 -17 979 -21 3027 -5 2462 -4 2548 14 2571 10
12 79 77 153 144 225 202 375 343 375 352 0 7 -362 384 -583 607 l-70 71 -154
-154 c-176 -178 -250 -237 -328 -267 -55 -21 -57 -21 -1425 -21 -1456 0 -1433
-1 -1530 47 -24 12 -116 98 -230 214 l-190 194 -67 -73z m82 -61 c0 -22 55
-66 84 -66 15 0 25 -4 21 -10 -3 -5 -1 -10 4 -10 13 0 71 -50 71 -61 0 -10 92
-103 147 -149 28 -23 39 -38 33 -46 -6 -6 -6 -15 -2 -20 4 -4 -1 -2 -10 5 -10
7 -16 17 -13 21 3 5 -4 11 -15 15 -11 4 -30 16 -42 28 l-21 22 6 -40 c5 -28 2
-44 -9 -56 -12 -14 -13 -19 -2 -30 13 -14 20 -49 10 -49 -3 0 -23 19 -44 43
-105 114 -204 208 -225 213 -26 7 -27 8 -12 36 10 18 9 20 -5 15 -11 -4 -15
-3 -10 4 5 9 12 79 14 142 0 20 20 13 20 -7z m3862 -16 c2 -12 8 -20 13 -20 6
1 9 7 7 15 -4 19 28 12 40 -10 6 -10 27 -32 46 -49 20 -17 40 -37 46 -45 6 -8
49 -54 96 -101 47 -47 101 -104 121 -125 19 -22 61 -62 93 -90 93 -81 108 -96
103 -102 -3 -3 -12 -1 -19 3 -22 14 -48 15 -42 1 5 -14 -37 -19 -46 -6 -3 5
-28 10 -55 13 -70 6 -107 28 -167 98 -29 33 -91 98 -138 144 -65 64 -91 84
-112 84 l-28 0 4 78 c4 85 14 132 26 132 5 0 10 -9 12 -20z m-3908 -24 c-3 -9
-10 -16 -15 -16 -5 0 -4 9 3 20 14 22 21 20 12 -4z m126 -2 c0 -2 -9 0 -20 6
-11 6 -20 13 -20 16 0 2 9 0 20 -6 11 -6 20 -13 20 -16z m-131 -151 c-5 -14
-26 -42 -46 -62 l-36 -36 19 33 c10 17 22 32 26 32 4 0 14 14 23 30 19 37 28
39 14 3z m-99 -106 c0 -2 -10 -12 -22 -23 l-23 -19 19 23 c18 21 26 27 26 19z
m161 -110 c0 -48 2 -87 4 -87 2 0 11 7 19 16 9 8 16 11 16 5 0 -6 5 -11 11
-11 5 0 8 4 5 9 -3 5 4 11 15 14 16 4 20 11 16 26 -6 25 8 18 24 -11 10 -18 9
-20 -5 -15 -11 5 -16 1 -16 -13 0 -13 7 -20 20 -20 14 0 18 -5 13 -16 -4 -11
-15 -15 -35 -12 -18 3 -27 1 -25 -6 6 -14 -46 -15 -55 -1 -4 5 -8 -1 -8 -14 0
-23 -1 -24 -20 -6 -11 10 -20 14 -20 9 0 -5 -4 -3 -9 5 -5 8 -23 14 -40 15
-17 0 -31 4 -31 9 0 4 0 10 -1 15 0 4 19 12 43 17 l43 11 3 89 c2 77 5 87 17
74 11 -11 15 -40 16 -102z m3845 23 c3 -49 10 -90 14 -90 5 0 6 9 3 21 -5 19
-4 20 16 8 22 -15 28 -29 10 -29 -5 0 -7 -4 -4 -10 4 -6 13 -5 25 2 14 9 16
16 8 25 -8 10 -6 13 6 13 9 0 16 -4 16 -9 0 -4 19 -21 41 -37 l41 -28 -27 -8
c-15 -3 -32 -5 -38 -3 -7 2 -25 6 -42 10 -24 5 -28 4 -17 -6 20 -21 14 -32
-11 -16 -19 12 -24 12 -35 1 -7 -8 -10 -14 -7 -14 3 0 3 -5 0 -11 -5 -7 -13
-5 -25 6 -10 9 -21 15 -26 13 -14 -4 -55 28 -46 36 4 4 -7 5 -23 1 -25 -5 -27
-4 -12 5 10 7 30 9 44 5 20 -5 24 -3 20 9 -4 9 -1 15 5 13 14 -3 25 35 33 116
4 37 10 67 15 67 5 0 12 -40 16 -90z m-3546 50 c0 -5 -7 -10 -16 -10 -8 0 -12
5 -9 10 3 6 10 10 16 10 5 0 9 -4 9 -10z m98 -29 c10 -6 8 -10 -9 -14 -26 -7
-34 -3 -24 12 7 13 15 14 33 2z m-118 -33 c0 -5 -9 -4 -20 2 -11 6 -20 12 -20
14 0 2 9 2 20 -1 11 -3 20 -9 20 -15z m-558 -18 c-12 -11 -24 -20 -28 -20 -4
0 1 9 11 20 10 11 23 20 28 20 6 0 1 -9 -11 -20z m683 -5 c0 -20 22 -44 40
-45 6 0 3 5 -5 10 -12 8 -9 10 12 10 20 0 26 -4 22 -15 -5 -11 1 -15 22 -14
25 0 26 1 9 9 -17 7 -14 9 14 9 29 1 32 -1 21 -14 -14 -17 -14 -17 86 -17 34
0 78 -3 97 -8 20 -4 38 -5 41 -2 11 10 106 13 106 3 0 -6 11 -6 33 0 17 6 118
9 222 8 105 -1 283 -1 398 0 114 1 207 -3 207 -7 0 -26 -28 -41 -80 -42 -184
-4 -870 2 -870 8 0 4 -93 6 -208 5 -114 0 -219 1 -234 4 -28 5 -78 48 -78 66
0 5 10 3 23 -6 20 -13 24 -13 37 1 12 14 12 15 -6 10 -11 -3 -29 1 -40 9 -16
12 -17 15 -4 23 22 14 33 12 27 -4 -4 -9 2 -14 16 -14 12 0 32 -3 43 -7 15 -5
23 -2 28 10 3 9 2 13 -4 10 -6 -3 -10 1 -10 10 0 10 7 15 18 13 9 -2 17 -12
17 -23z m60 5 c-3 -5 -12 -10 -18 -10 -7 0 -6 4 3 10 19 12 23 12 15 0z m40
-10 c3 -5 -1 -10 -10 -10 -9 0 -13 5 -10 10 3 6 8 10 10 10 2 0 7 -4 10 -10z
m-855 -60 c-35 -45 -53 -49 -90 -20 -20 15 -21 20 -8 20 9 0 19 -4 22 -9 7
-11 58 12 76 34 7 8 17 15 22 15 5 0 -5 -18 -22 -40z m957 14 c-9 -9 -28 6
-21 18 4 6 10 6 17 -1 6 -6 8 -13 4 -17z m958 16 c3 -5 1 -10 -4 -10 -6 0 -11
5 -11 10 0 6 2 10 4 10 3 0 8 -4 11 -10z m670 0 c3 -5 2 -10 -4 -10 -5 0 -13
5 -16 10 -3 6 -2 10 4 10 5 0 13 -4 16 -10z m-279 -31 c45 -1 87 1 93 6 8 4
14 -1 18 -14 6 -23 14 -26 29 -11 6 6 32 11 58 12 25 0 49 4 51 9 3 4 42 6 88
3 45 -2 141 -5 213 -7 112 -2 131 -4 126 -17 -5 -13 -4 -13 12 0 16 13 77 21
141 19 59 -2 131 -2 226 1 58 1 114 -2 125 -7 10 -6 25 -8 33 -5 12 4 12 3 0
-10 -10 -11 -16 -13 -21 -4 -6 8 -8 8 -8 -1 0 -9 -17 -13 -49 -13 -28 0 -52
-3 -54 -7 -6 -10 -149 -9 -165 1 -6 4 -17 4 -22 1 -19 -12 -100 -13 -100 -1 0
8 -2 8 -8 0 -5 -9 -23 -9 -64 -3 -31 5 -67 6 -80 2 -13 -5 -119 -8 -235 -8
-117 0 -213 -2 -213 -5 0 -5 -119 -5 -130 0 -3 1 -59 4 -125 6 -149 4 -146 4
-136 23 5 9 6 21 4 28 -2 6 1 15 8 19 7 4 9 3 6 -2 -3 -6 11 -10 34 -9 30 0
38 3 34 14 -5 12 -2 11 12 -1 13 -12 41 -17 99 -19z m-1795 -16 c13 -16 12
-17 -3 -4 -17 13 -22 21 -14 21 2 0 10 -8 17 -17z m3364 7 c-3 -5 -12 -10 -18
-10 -7 0 -6 4 3 10 19 12 23 12 15 0z m-289 -15 c24 -12 26 -15 8 -15 -11 0
-29 7 -40 15 -25 19 -4 19 32 0z m-3371 -5 c3 -5 1 -10 -4 -10 -6 0 -11 5 -11
10 0 6 2 10 4 10 3 0 8 -4 11 -10z m4365 -33 c0 -2 -12 -14 -27 -28 l-26 -24
19 27 c16 23 34 36 34 25z m-4010 -191 c0 -2 -8 -10 -17 -17 -16 -13 -17 -12
-4 4 13 16 21 21 21 13z m3800 -48 c-1 -18 -58 -83 -66 -75 -10 9 42 86 59 87
4 0 7 -6 7 -12z m-4130 -63 c11 -13 10 -14 -4 -9 -9 3 -16 10 -16 15 0 13 6
11 20 -6z m190 -16 c-18 -32 -22 -19 -11 29 1 2 6 0 11 -3 7 -4 7 -13 0 -26z
m-160 -19 c0 -5 -2 -10 -4 -10 -3 0 -8 5 -11 10 -3 6 -1 10 4 10 6 0 11 -4 11
-10z m4020 6 c0 -3 -4 -8 -10 -11 -5 -3 -10 -1 -10 4 0 6 5 11 10 11 6 0 10
-2 10 -4z m-2044 -134 c-4 -7 237 -8 254 -2 6 3 3 3 74 -5 33 -3 67 -10 77
-15 10 -6 24 -8 31 -5 7 3 18 -5 23 -17 6 -14 18 -22 29 -21 11 1 28 -10 38
-23 11 -13 28 -24 39 -24 10 0 19 -4 19 -10 0 -5 7 -7 15 -4 8 3 26 -4 41 -15
25 -20 27 -20 40 -4 11 16 13 16 19 -10 4 -15 16 -32 27 -38 11 -6 17 -16 15
-23 -3 -6 3 -12 14 -12 11 0 19 4 19 8 0 4 7 5 15 2 8 -3 13 -10 12 -16 -1 -5
6 -15 17 -21 34 -21 77 -70 79 -87 1 -10 7 -16 14 -13 9 3 13 -4 13 -20 0 -14
7 -32 15 -40 8 -8 11 -17 8 -21 -4 -3 1 -6 10 -6 19 0 21 -8 7 -30 -6 -10 -10
-11 -10 -2 0 6 -4 12 -10 12 -6 0 -6 -9 0 -26 6 -14 10 -35 9 -47 0 -12 -7 3
-16 33 -18 67 -34 87 -62 74 -21 -9 -21 -9 3 -61 17 -36 21 -53 13 -57 -8 -3
-6 -10 7 -20 11 -9 20 -26 22 -38 2 -26 -22 -66 -33 -54 -5 4 1 15 12 23 14
11 16 17 7 20 -6 3 -10 9 -6 14 3 5 -1 9 -9 9 -19 0 -28 -57 -11 -71 9 -8 21
-4 44 12 25 19 44 23 103 24 79 0 113 -15 137 -60 16 -30 0 -56 -31 -48 -12 4
-25 -1 -34 -13 -22 -29 -17 -42 5 -14 l20 25 -16 -48 c-9 -26 -13 -51 -10 -54
3 -4 6 -1 6 5 0 7 5 12 10 12 6 0 10 -5 10 -11 0 -7 7 -17 16 -24 11 -7 14
-19 10 -32 -8 -25 -36 -39 -36 -18 0 8 -4 15 -9 15 -12 0 -6 -54 8 -78 8 -13
11 -14 11 -2 0 12 2 12 10 -2 13 -22 2 -48 -17 -41 -12 5 -14 0 -8 -26 6 -27
3 -32 -17 -40 -15 -5 -25 -5 -30 2 -9 15 -131 13 -136 -2 -2 -6 -15 -11 -28
-11 -14 0 -22 4 -19 10 3 6 -4 10 -16 10 -16 0 -20 -5 -17 -18 4 -15 -3 -21
-33 -29 -21 -5 -37 -7 -35 -4 2 3 -10 6 -28 7 -23 0 -32 -4 -32 -17 0 -11 6
-15 16 -11 19 7 13 1 -30 -28 -19 -13 -29 -17 -22 -10 17 20 15 35 -3 20 -8
-7 -15 -18 -15 -26 0 -15 -40 -45 -50 -39 -4 3 -13 -2 -20 -10 -7 -8 -9 -15
-5 -15 4 0 -4 -9 -18 -20 -14 -11 -30 -20 -35 -20 -6 0 -16 -13 -23 -29 -7
-16 -17 -28 -21 -25 -10 6 -30 -34 -23 -46 3 -5 1 -11 -5 -15 -5 -3 -10 1 -10
9 0 9 -5 16 -11 16 -5 0 -7 -4 -4 -10 3 -6 -1 -7 -9 -4 -19 7 -21 -7 -4 -24 9
-9 8 -12 -5 -12 -9 0 -17 7 -17 16 0 8 -5 12 -10 9 -6 -4 -8 -10 -5 -15 3 -5
-11 -16 -30 -26 -20 -9 -37 -15 -38 -13 -1 2 -8 15 -16 29 -21 37 -24 83 -7
115 9 17 16 36 16 42 0 7 18 25 41 40 53 35 141 121 135 132 -6 10 46 71 61
71 5 0 19 13 30 29 12 15 31 31 43 34 17 4 19 3 9 -9 -7 -9 -8 -14 -1 -14 18
0 23 18 10 39 -10 17 -4 27 65 94 42 42 77 82 77 90 0 8 15 28 34 45 23 20 31
34 25 43 -4 7 -11 10 -15 6 -16 -16 -32 15 -28 54 3 21 0 47 -5 57 -9 15 -11
14 -12 -8 -3 -37 -3 -41 4 -82 4 -29 1 -42 -17 -62 -12 -14 -26 -26 -30 -26
-5 0 -2 8 6 18 9 9 19 28 22 42 l7 25 -15 -27 c-9 -14 -32 -36 -51 -48 -40
-25 -45 -34 -12 -25 21 6 21 6 -3 -14 -13 -10 -36 -22 -50 -25 -24 -4 -148
-120 -160 -149 -11 -27 -85 -117 -96 -117 -16 0 -104 -100 -104 -118 0 -9 -7
-11 -20 -7 -12 4 -20 2 -20 -5 0 -6 -5 -8 -11 -5 -6 4 -8 14 -5 22 4 9 1 22
-6 31 -7 8 -12 26 -12 41 1 21 0 22 -3 4 -2 -13 -10 -23 -16 -23 -7 0 -4 -7 7
-15 15 -12 17 -20 9 -52 -5 -21 -15 -37 -21 -36 -7 2 -9 -4 -5 -14 4 -10 2
-14 -5 -9 -6 3 -13 2 -16 -3 -4 -5 8 -12 26 -14 l33 -4 -33 -1 c-20 -1 -35 3
-38 12 -3 8 -12 12 -20 9 -8 -3 -14 0 -14 6 0 6 5 11 12 11 6 0 3 9 -7 20 -10
11 -24 20 -30 20 -7 0 -24 15 -38 34 -23 30 -107 91 -92 66 9 -15 -21 -12 -34
4 -9 11 -8 15 5 20 13 5 8 12 -25 36 -49 36 -53 47 -10 24 21 -10 30 -12 27
-3 -2 6 -23 19 -47 29 -24 9 -66 39 -94 66 -36 35 -44 40 -29 18 12 -17 28
-37 37 -44 9 -8 25 -30 35 -49 10 -20 30 -47 44 -60 14 -14 26 -31 26 -38 0
-8 9 -23 20 -35 11 -12 20 -29 20 -37 0 -9 18 -36 40 -60 22 -25 40 -48 40
-53 0 -4 3 -7 8 -6 9 3 46 -23 56 -39 5 -9 2 -11 -10 -6 -26 10 -1 -30 29 -46
15 -8 23 -19 20 -27 -3 -8 0 -14 6 -14 6 0 11 -6 11 -14 0 -7 6 -19 14 -25 11
-9 15 -7 20 11 3 13 6 33 6 46 0 14 4 20 10 17 6 -4 17 -2 24 4 20 17 41 4 44
-27 1 -14 11 -42 21 -62 53 -101 80 -158 85 -180 12 -57 106 -121 146 -100 10
5 21 5 26 0 5 -5 34 -2 69 7 33 8 72 16 86 18 14 1 40 10 57 19 17 9 39 16 49
16 11 -1 5 -6 -14 -15 -51 -22 -39 -24 23 -4 31 10 60 16 64 14 5 -3 11 -1 15
5 4 6 10 8 14 6 11 -7 61 29 76 55 73 132 73 131 69 218 -4 77 -3 82 20 92 17
8 23 20 24 44 1 28 -3 34 -25 40 -19 4 -23 9 -14 18 16 16 14 57 -4 63 -23 9
-7 24 25 24 16 0 32 5 35 10 4 6 11 7 17 4 6 -4 6 -10 -1 -17 -6 -6 -11 -29
-12 -51 0 -37 -1 -39 -11 -18 -14 29 -25 28 -30 -2 -4 -18 0 -26 14 -30 13 -3
19 -12 17 -28 -3 -29 11 -78 22 -78 4 0 11 -17 15 -37 7 -37 18 -53 39 -53 6
0 4 4 -3 8 -7 5 -14 17 -16 28 -2 10 -6 25 -8 33 -1 8 6 17 16 19 14 3 17 0
13 -12 -4 -9 -2 -16 3 -16 6 0 10 -10 10 -23 0 -17 12 -27 50 -45 32 -15 47
-27 44 -36 -3 -7 2 -20 10 -29 18 -17 21 -32 6 -22 -5 3 -10 -3 -10 -14 0 -10
6 -22 13 -25 9 -3 7 -9 -5 -19 -10 -8 -18 -20 -18 -26 0 -7 -4 -9 -10 -6 -5 3
-10 1 -10 -6 0 -8 -4 -8 -15 1 -18 15 -19 9 -4 -24 14 -29 4 -80 -13 -70 -8 5
-9 2 -5 -9 3 -10 2 -17 -3 -17 -6 0 -10 5 -10 12 0 6 -7 3 -15 -8 -12 -16 -14
-16 -15 -3 0 28 -37 30 -55 3 -8 -13 -11 -24 -5 -24 5 0 10 5 10 10 0 6 8 5
20 -2 27 -17 25 -32 -10 -68 -31 -32 -38 -50 -19 -50 6 0 8 -9 5 -20 -3 -11
-9 -30 -12 -42 -5 -16 -3 -20 10 -15 9 4 16 2 16 -3 0 -6 -5 -10 -11 -10 -6 0
-8 -7 -5 -16 3 -9 2 -12 -5 -9 -6 4 -9 -1 -7 -11 2 -15 -4 -19 -27 -20 -16 -1
-37 2 -45 7 -12 7 -12 8 4 9 13 0 16 3 9 13 -6 6 -13 25 -17 41 -6 23 -9 27
-17 15 -5 -7 -9 -9 -9 -4 0 6 -11 12 -26 13 -14 1 -34 7 -45 13 -11 6 -27 8
-35 5 -8 -3 -24 -1 -36 4 -21 8 -20 9 9 9 25 1 30 4 26 20 -3 13 -11 17 -24
14 -10 -3 -19 -9 -19 -14 0 -4 -15 -5 -33 -2 -23 3 -39 0 -49 -10 -9 -9 -19
-13 -23 -9 -3 4 -34 12 -68 18 -34 6 -70 15 -81 19 -16 7 -17 5 -11 -15 5 -15
3 -20 -3 -16 -6 3 -13 2 -17 -4 -3 -5 -1 -10 5 -10 6 0 9 -3 7 -7 -3 -5 -8
-35 -12 -68 -3 -33 -11 -65 -17 -72 -5 -7 -7 -17 -3 -22 8 -15 -22 -58 -45
-64 -38 -10 -36 31 2 48 42 19 32 35 -11 18 -27 -11 -41 -22 -41 -35 0 -10 -4
-18 -10 -18 -5 0 -31 -13 -57 -30 -26 -16 -54 -30 -63 -30 -8 0 -33 -12 -54
-26 -23 -16 -41 -22 -45 -16 -3 5 -17 12 -31 13 -14 2 -26 11 -26 19 -1 8 -2
23 -3 32 -1 24 -31 11 -31 -13 0 -10 5 -19 10 -19 6 0 10 -7 10 -15 0 -8 -4
-15 -10 -15 -5 0 -10 -11 -10 -24 0 -13 -7 -27 -16 -30 -9 -3 -12 -2 -9 5 8
12 -34 51 -46 43 -13 -8 -11 -42 4 -48 6 -3 1 -3 -13 0 -14 3 -38 12 -54 20
-38 18 -52 18 -36 -1 7 -8 22 -16 34 -16 16 -1 17 -2 4 -6 -26 -7 -78 24 -72
42 4 9 0 15 -10 15 -10 0 -16 8 -16 22 0 21 0 21 -15 2 -14 -18 -16 -18 -19 9
-1 6 -12 11 -24 10 -14 -2 -22 3 -22 13 0 11 -6 15 -20 11 -11 -3 -20 -1 -20
5 0 6 -7 8 -14 5 -18 -7 -23 9 -25 92 -2 55 -6 66 -29 87 -23 20 -25 25 -12
34 8 5 11 10 5 10 -5 0 8 9 30 20 l40 20 -34 -5 c-18 -3 -40 -5 -48 -5 -10 0
-13 -6 -9 -16 5 -13 4 -14 -7 -5 -12 9 -41 15 -116 20 -7 1 -11 7 -8 15 9 22
-2 25 -31 10 -16 -8 -28 -10 -30 -4 -2 6 -8 10 -14 10 -6 0 -8 -6 -5 -14 4
-10 -6 -16 -34 -20 -22 -4 -37 -11 -34 -16 8 -13 -8 -13 -21 0 -7 7 -19 8 -36
1 -14 -5 -29 -7 -34 -3 -4 4 -4 1 1 -6 4 -8 16 -12 26 -9 12 3 19 0 19 -10 0
-10 -6 -13 -15 -9 -9 3 -18 -1 -21 -9 -4 -8 -12 -15 -20 -15 -8 0 -13 -6 -12
-12 2 -7 -3 -12 -11 -10 -8 2 -11 -3 -8 -13 4 -8 2 -15 -4 -15 -6 0 -7 -5 -3
-12 5 -7 11 -5 21 7 14 20 17 16 7 -9 -6 -16 -30 -21 -58 -10 -9 3 -13 10 -10
15 3 5 -3 9 -14 9 -10 0 -27 9 -37 20 -10 11 -24 20 -31 20 -7 0 -18 8 -23 18
-9 15 -12 15 -21 2 -6 -10 -10 -11 -10 -2 0 8 -16 12 -45 12 -28 0 -47 5 -49
13 -13 40 -13 64 -1 80 13 18 14 18 32 0 10 -10 23 -29 30 -43 l12 -25 0 30
c0 17 -4 48 -8 70 -7 31 -9 34 -10 13 -1 -31 -19 -30 -38 2 -10 15 -10 22 2
34 17 17 20 56 4 56 -5 0 -8 -4 -4 -10 3 -5 -3 -18 -14 -29 l-20 -20 5 32 c3
23 2 27 -4 12 -8 -18 -9 -17 -14 8 -4 22 -2 27 9 22 11 -3 13 -1 9 10 -3 8 -3
15 0 15 9 0 54 -44 54 -52 0 -4 11 -18 25 -32 18 -18 25 -21 25 -10 0 8 -7 17
-15 20 -8 4 -15 12 -15 20 0 7 -9 18 -20 24 -13 7 -20 21 -20 40 0 31 -14 47
-26 29 -4 -8 -3 -9 4 -5 7 4 12 1 12 -8 0 -18 -18 -20 -40 -6 -10 7 -11 10 -2
10 9 0 10 4 1 19 -19 30 -4 53 32 49 27 -2 35 2 49 27 12 21 24 29 39 28 16
-2 21 3 21 20 0 12 3 40 5 62 4 30 3 35 -4 20 -8 -16 -10 -13 -9 18 1 20 2 37
3 37 0 0 18 -9 40 -20 47 -24 65 -25 65 -5 0 20 16 19 24 -1 4 -9 9 -14 13
-11 3 4 12 2 20 -5 7 -6 17 -7 21 -3 4 4 1 10 -5 12 -7 3 -13 12 -13 21 0 14
2 14 18 -1 104 -100 138 -138 134 -149 -1 -5 2 -8 6 -8 5 0 7 -13 4 -29 -3
-22 1 -32 16 -40 22 -12 33 -6 25 15 -12 33 87 -8 112 -47 11 -16 28 -32 38
-35 11 -4 16 -12 13 -21 -5 -12 -1 -14 21 -9 20 5 24 4 13 -3 -12 -8 -11 -11
5 -17 11 -5 39 -8 62 -8 35 1 41 -2 32 -13 -9 -10 -6 -13 17 -13 16 0 52 -3
80 -6 l51 -6 31 53 c32 55 39 60 22 15 -13 -36 -6 -32 20 9 12 19 21 45 20 57
-4 40 1 113 6 101 3 -7 12 -9 20 -6 8 3 14 0 14 -6 0 -8 10 -6 29 5 29 17 33
41 5 30 -8 -3 -14 -4 -14 -2 0 3 -3 12 -6 20 -5 12 -2 15 11 10 13 -5 16 -3
13 7 -3 9 -16 13 -34 11 l-29 -2 22 18 c12 11 21 26 19 35 -3 23 -16 34 -16
14 0 -10 -7 -17 -15 -17 -10 0 -12 -6 -8 -17 6 -16 5 -16 -10 -4 -10 8 -21 11
-24 7 -4 -4 -1 -11 7 -16 12 -8 12 -10 -4 -10 -12 0 -16 -5 -12 -15 7 -19 -13
-20 -28 -1 -13 17 -62 33 -52 18 4 -6 -19 0 -51 12 -36 15 -68 37 -86 60 -16
20 -34 36 -40 36 -6 0 -2 -10 9 -23 10 -13 8 -11 -6 3 -34 36 -81 96 -104 134
-17 28 -15 27 20 -9 21 -22 37 -44 36 -48 -4 -14 30 -20 39 -6 7 10 8 7 7 -11
-2 -18 2 -25 14 -25 9 0 26 -9 37 -19 31 -28 25 -12 -14 40 -19 25 -35 49 -35
53 0 4 -11 13 -25 19 -14 6 -25 18 -25 26 0 19 -37 63 -46 54 -4 -5 3 -17 16
-28 13 -11 21 -23 17 -26 -11 -11 -45 31 -52 66 -11 51 -18 61 -33 44 -7 -8
-8 -14 -2 -14 5 0 10 -7 10 -15 0 -8 -7 -15 -16 -15 -8 0 -12 -4 -9 -10 11
-18 -1 -10 -26 16 l-24 27 23 -12 c35 -19 36 -8 1 23 -31 28 -69 42 -69 26 0
-5 10 -11 23 -13 12 -3 2 -4 -23 -2 -59 4 -57 4 -39 18 17 13 8 29 -18 34 -13
3 -100 -38 -101 -47 0 -3 -4 -13 -7 -22 -4 -9 0 -27 8 -38 14 -21 15 -20 15
15 0 20 5 42 12 48 9 9 10 5 5 -15 -6 -23 -4 -28 10 -28 15 0 13 -5 -9 -27
-24 -24 -26 -32 -22 -75 3 -26 1 -48 -3 -48 -5 0 -11 -9 -14 -19 -4 -18 -9
-19 -41 -9 -19 6 -33 15 -30 20 3 4 -2 8 -11 8 -9 0 -22 14 -29 31 -8 20 -16
27 -21 20 -5 -9 -10 -9 -20 -1 -11 9 -12 6 -8 -12 11 -45 -14 -4 -27 45 -9 35
-17 47 -32 47 -12 0 -16 -4 -12 -12 5 -7 3 -8 -5 -4 -7 5 -10 14 -8 20 3 7 1
19 -5 27 -8 11 -8 9 -4 -5 7 -20 6 -20 -14 -1 -12 10 -28 20 -36 21 -13 2 -13
0 1 -19 8 -12 25 -36 36 -54 11 -17 27 -34 36 -37 9 -4 14 -9 11 -11 -11 -11
-66 27 -72 50 -4 16 -13 25 -26 25 -13 0 -20 7 -20 20 0 11 -4 20 -8 20 -10 0
-32 45 -32 63 0 7 8 -3 16 -20 9 -18 21 -33 26 -33 4 0 1 14 -7 30 -24 47 -17
128 14 167 18 22 28 29 33 20 6 -9 10 -9 17 1 4 8 12 13 17 13 4 -1 9 16 11
36 5 64 7 72 15 67 4 -3 8 8 8 25 0 16 5 33 10 36 6 3 7 17 4 31 -4 17 -1 26
10 30 10 4 14 13 11 23 -7 24 51 141 86 171 15 14 29 36 31 50 2 13 13 29 24
35 28 14 79 74 79 94 0 8 19 28 43 44 23 15 42 33 42 38 0 18 55 59 95 71 22
6 45 16 50 23 15 16 116 56 127 49 5 -3 25 2 45 12 26 11 68 18 136 20 54 1
102 5 105 8 9 9 24 7 18 -2z m-501 -92 c-3 -5 -12 -10 -18 -10 -7 0 -6 4 3 10
19 12 23 12 15 0z m-1248 -52 c-3 -7 -5 -2 -5 12 0 14 2 19 5 13 2 -7 2 -19 0
-25z m3 -69 c0 -16 -4 -28 -9 -25 -8 5 -3 56 5 56 2 0 4 -14 4 -31z m1067 -24
c-7 -13 -18 -27 -25 -30 -14 -5 -8 9 16 38 20 23 22 22 9 -8z m-931 -104 c7
-34 23 -9 25 39 0 19 3 29 6 21 5 -11 7 -11 14 0 5 8 8 -535 8 -1246 0 -811
-4 -1249 -10 -1230 -5 17 -8 59 -7 95 2 48 0 64 -9 62 -7 -1 -13 5 -13 13 0 8
7 15 15 15 16 0 20 16 6 24 -5 3 -11 17 -13 30 -4 17 -1 23 9 19 9 -4 13 4 13
25 0 17 -6 32 -12 34 -16 6 -19 100 -4 110 6 5 2 8 -9 8 -20 0 -21 -6 -23
-249 -2 -139 1 -252 6 -255 5 -3 8 7 6 22 l-4 27 9 -25 c15 -42 13 -60 -6 -53
-13 5 -15 2 -11 -14 3 -12 2 -27 -3 -34 -5 -8 -8 577 -7 1336 1 743 3 1328 5
1300 2 -27 6 -61 9 -74z m-136 -348 c1 -241 1 -676 2 -968 0 -291 -2 -557 -4
-590 -3 -33 0 -68 6 -77 16 -26 1 -32 -46 -17 -33 11 -44 20 -46 38 -2 15 0
21 7 17 6 -4 11 -2 11 3 0 6 -4 11 -10 11 -8 0 -8 213 0 418 0 6 7 12 16 12
14 0 14 2 -1 16 -14 14 -16 37 -12 161 2 79 7 146 10 149 3 3 2 17 -4 31 -5
13 -9 50 -9 81 0 51 1 54 15 36 14 -19 14 -19 15 2 0 12 -7 25 -16 28 -13 5
-15 24 -13 118 2 62 6 125 10 139 4 15 3 31 -3 37 -12 12 -1 72 13 72 6 0 7
-9 4 -20 -7 -23 3 -26 29 -7 27 20 10 50 -24 43 l-27 -5 -2 97 c-3 143 -3 216
1 320 3 58 1 92 -6 92 -6 0 -5 5 2 12 7 7 12 24 12 39 0 34 27 111 43 121 9 6
9 8 -1 8 -7 0 -10 5 -7 10 3 6 13 10 21 10 12 0 14 -64 14 -437z m3671 370 c0
-16 2 -176 4 -358 2 -181 8 -341 13 -355 7 -18 6 -35 -2 -55 -11 -26 -10 -34
7 -57 12 -15 17 -31 13 -35 -4 -4 -11 -1 -16 7 -10 16 -11 0 -11 -185 -1 -113
-6 -158 -20 -149 -5 3 -9 -7 -8 -23 0 -25 1 -26 9 -8 5 11 9 18 10 15 13 -43
19 -310 6 -310 -4 0 -3 -7 4 -14 8 -10 9 -33 5 -70 -6 -48 -10 -56 -29 -57
-21 0 -21 0 2 -16 20 -14 22 -23 22 -103 0 -61 -4 -90 -12 -93 -10 -4 -9 -8 2
-17 12 -9 12 -13 2 -17 -10 -4 -10 -8 -1 -20 10 -12 10 -16 -1 -23 -7 -4 -18
-6 -25 -4 -7 3 -12 -10 -13 -33 -2 -26 1 -34 7 -24 13 19 41 6 41 -19 0 -14
-4 -19 -12 -14 -7 5 -8 3 -3 -7 12 -19 13 -47 5 -86 -6 -23 -4 -35 5 -41 7 -4
14 -28 16 -54 3 -37 1 -44 -9 -35 -11 8 -12 5 -5 -19 4 -16 7 -56 5 -89 -1
-33 -3 -95 -5 -137 -1 -43 -4 -78 -8 -78 -3 0 -3 -14 -1 -31 3 -22 1 -30 -7
-25 -6 4 -11 20 -11 37 0 29 -14 40 -23 17 -3 -7 -6 66 -6 162 0 116 3 170 9
160 13 -20 13 -4 0 20 -8 15 -5 21 20 32 35 15 36 19 10 35 -16 11 -21 10 -29
-5 -8 -12 -11 19 -12 108 -3 319 -3 330 14 343 15 11 15 15 3 39 -11 21 -15
117 -20 455 -11 731 -14 1069 -9 1041 2 -16 11 -28 19 -28 11 0 14 14 14 59 0
33 5 63 10 66 6 3 10 16 9 28 0 21 -1 21 -9 2 -8 -18 -9 -17 -9 8 -1 16 3 26
9 22 6 -3 10 1 10 10 0 9 -4 13 -10 10 -5 -3 -10 1 -10 10 0 10 5 13 12 9 8
-5 9 -2 5 9 -3 10 -2 17 3 17 6 0 10 -12 11 -27z m-2738 -103 c-3 -11 -9 -20
-15 -20 -5 0 -4 9 2 20 6 11 12 20 14 20 2 0 2 -9 -1 -20z m2565 -954 c1 -391
0 -707 -3 -704 -3 3 -5 143 -5 312 0 238 -3 306 -13 306 -9 0 -8 3 1 9 10 6
13 27 11 72 -3 77 -12 98 -40 96 -19 -1 -21 -6 -16 -50 4 -29 2 -45 -3 -42 -6
4 -10 165 -10 412 0 224 2 404 5 401 3 -2 5 -131 6 -286 0 -166 5 -280 10
-276 5 3 9 24 9 47 0 31 3 38 10 27 8 -12 10 -11 10 8 0 12 -4 22 -8 22 -4 0
-9 14 -10 30 -2 19 2 29 10 28 7 -2 13 7 14 20 1 13 -4 22 -12 22 -12 0 -12 4
-2 20 10 15 10 22 0 32 -14 14 -16 32 -2 23 6 -3 10 0 10 9 0 8 -5 16 -12 18
-8 3 -5 11 10 23 20 18 32 42 15 32 -5 -3 -6 74 -3 171 l5 177 5 -125 c3 -69
7 -444 8 -834z m-2605 899 c-3 -9 -8 -14 -10 -11 -3 3 -2 9 2 15 9 16 15 13 8
-4z m-606 -167 c-2 -13 -4 -3 -4 22 0 25 2 35 4 23 2 -13 2 -33 0 -45z m42
-42 c-1 -22 -3 -33 -6 -23 -4 14 -8 16 -19 6 -8 -6 -14 -8 -14 -4 0 4 8 13 17
20 15 11 15 17 5 41 -12 24 -11 26 2 14 10 -8 16 -27 15 -54z m-37 -130 c1
-48 6 -90 11 -93 6 -4 8 0 4 10 -3 10 -3 17 1 17 8 0 7 58 -2 93 -3 12 -1 28
3 35 18 30 31 -365 21 -667 0 -12 -3 -12 -12 -3 -15 15 -21 52 -8 52 6 0 10
23 10 50 0 37 -4 50 -14 50 -11 0 -15 -17 -15 -78 0 -71 2 -79 24 -96 l25 -19
0 -270 c0 -149 -2 -268 -5 -265 -3 3 -6 50 -6 104 0 62 -4 104 -12 113 -9 11
-9 13 0 8 8 -5 11 2 11 23 -1 16 -5 30 -10 30 -4 0 -8 5 -8 11 0 5 5 7 10 4 6
-4 10 10 10 34 0 30 -4 41 -15 41 -17 0 -18 -11 -15 -117 1 -40 -2 -73 -7 -73
-5 0 -10 56 -12 124 -2 103 0 126 14 140 9 9 14 16 11 16 -2 0 -1 13 3 28 6
19 4 37 -5 53 -12 23 -13 21 -16 -31 -3 -30 -5 131 -6 359 -1 228 0 412 3 409
3 -3 6 -44 7 -92z m2990 -82 c-2 -55 -12 -54 -12 1 0 27 3 45 7 42 3 -4 6 -23
5 -43z m45 -381 c-1 -81 -3 -17 -3 142 0 160 2 226 3 148 2 -78 2 -208 0 -290z
m-2160 221 c-3 -3 -12 -4 -19 -1 -8 3 -5 6 6 6 11 1 17 -2 13 -5z m2110 -101
c-2 -21 -4 -4 -4 37 0 41 2 58 4 38 2 -21 2 -55 0 -75z m-522 37 c3 -6 -1 -7
-9 -4 -18 7 -21 14 -7 14 6 0 13 -4 16 -10z m-1025 -10 c0 -5 -2 -10 -4 -10
-3 0 -8 5 -11 10 -3 6 -1 10 4 10 6 0 11 -4 11 -10z m1142 -42 c-9 -9 -12 -7
-12 12 0 19 3 21 12 12 9 -9 9 -15 0 -24z m-2114 -28 c-2 -7 -10 1 -17 16 -12
27 -11 28 4 12 10 -9 16 -21 13 -28z m1033 -9 c33 -34 34 -37 15 -44 -10 -4
-13 -1 -10 8 3 7 -3 16 -14 19 -11 4 -22 16 -25 26 -7 27 -1 25 34 -9z m269
25 c0 -3 -4 -8 -10 -11 -5 -3 -10 -1 -10 4 0 6 5 11 10 11 6 0 10 -2 10 -4z
m-25 -51 c0 -24 -50 -32 -59 -9 -3 8 1 14 9 14 8 0 15 5 15 11 0 6 8 9 18 7 9
-2 17 -12 17 -23z m-1200 -25 c-3 -4 5 -10 16 -13 20 -5 20 -6 2 -25 -17 -18
-19 -18 -37 -2 -24 23 -15 80 9 60 8 -7 13 -16 10 -20z m23 5 c-3 -3 -9 2 -12
12 -6 14 -5 15 5 6 7 -7 10 -15 7 -18z m2419 -22 c-3 -10 -5 -4 -5 12 0 17 2
24 5 18 2 -7 2 -21 0 -30z m-491 -30 c-11 -12 -27 13 -20 32 7 17 8 17 17 -3
6 -12 7 -25 3 -29z m-816 17 c-24 -15 -36 -11 -14 4 10 8 21 12 24 10 2 -3 -2
-9 -10 -14z m-859 -28 c-7 -2 -18 1 -23 6 -8 8 -4 9 13 5 13 -4 18 -8 10 -11z
m769 8 c0 -5 -2 -10 -4 -10 -3 0 -8 5 -11 10 -3 6 -1 10 4 10 6 0 11 -4 11
-10z m1397 -27 c-3 -10 -5 -4 -5 12 0 17 2 24 5 18 2 -7 2 -21 0 -30z m-297
-16 c0 -5 -4 -5 -10 -2 -5 3 -10 14 -10 23 0 15 2 15 10 2 5 -8 10 -19 10 -23z
m500 -9 c0 -12 -3 -18 -7 -14 -10 10 -11 46 -1 40 4 -3 8 -15 8 -26z m-1220
-22 c0 -2 -7 -7 -16 -10 -8 -3 -12 -2 -9 4 6 10 25 14 25 6z m504 -28 c-5 -7
-10 -24 -12 -37 -4 -34 -30 -81 -44 -81 -9 0 -9 3 0 12 16 16 15 48 0 48 -8 0
-9 3 -3 8 6 4 10 16 10 27 0 13 8 21 23 23 17 3 22 8 17 20 -5 13 -3 14 6 5 6
-6 8 -17 3 -25z m513 0 c-3 -7 -5 -2 -5 12 0 14 2 19 5 13 2 -7 2 -19 0 -25z
m203 2 c0 -5 -2 -10 -4 -10 -3 0 -8 5 -11 10 -3 6 -1 10 4 10 6 0 11 -4 11
-10z m-41 -27 c0 -25 -1 -26 -9 -8 -12 27 -12 35 0 35 6 0 10 -12 9 -27z
m-112 -25 c-3 -7 -5 -2 -5 12 0 14 2 19 5 13 2 -7 2 -19 0 -25z m139 -53 c-1
-29 -16 -35 -16 -7 0 16 8 32 16 32 1 0 1 -11 0 -25z m-26 -137 c0 -72 -2
-129 -5 -126 -8 8 -11 258 -2 258 4 0 7 -59 7 -132z m-113 40 c-2 -13 -4 -5
-4 17 -1 22 1 32 4 23 2 -10 2 -28 0 -40z m-1203 26 c9 -23 7 -36 -3 -30 -12
8 -21 46 -11 46 4 0 11 -7 14 -16z m-1807 -96 c-3 -7 -5 -2 -5 12 0 14 2 19 5
13 2 -7 2 -19 0 -25z m3010 -70 c-2 -18 -4 -6 -4 27 0 33 2 48 4 33 2 -15 2
-42 0 -60z m-50 30 c-3 -8 -6 -5 -6 6 -1 11 2 17 5 13 3 -3 4 -12 1 -19z m0
-110 c-3 -8 -6 -5 -6 6 -1 11 2 17 5 13 3 -3 4 -12 1 -19z m160 -410 c-1 -79
-3 -15 -3 142 0 157 2 221 3 143 2 -79 2 -207 0 -285z m-3146 296 c0 -42 -3
-79 -6 -82 -3 -3 -5 34 -5 83 0 49 3 86 6 82 3 -3 6 -40 5 -83z m2269 56 c0
-5 -2 -10 -4 -10 -3 0 -8 5 -11 10 -3 6 -1 10 4 10 6 0 11 -4 11 -10z m-105
-10 c3 -6 -1 -7 -9 -4 -18 7 -21 14 -7 14 6 0 13 -4 16 -10z m285 -50 c0 -12
7 -20 17 -20 16 0 10 -14 -8 -16 -5 -1 -12 -2 -15 -3 -4 0 -1 -8 6 -16 8 -10
9 -15 1 -15 -6 0 -18 17 -26 37 -12 29 -13 38 -3 45 21 13 28 9 28 -12z m-393
-12 c-3 -8 -6 -5 -6 6 -1 11 2 17 5 13 3 -3 4 -12 1 -19z m-2036 -11 c-10 -9
-11 -8 -5 6 3 10 9 15 12 12 3 -3 0 -11 -7 -18z m1164 -54 c-3 -21 -10 -42
-15 -47 -5 -5 -7 -1 -5 10 13 62 16 74 21 74 4 0 3 -17 -1 -37z m2152 -5 c-3
-8 -6 -5 -6 6 -1 11 2 17 5 13 3 -3 4 -12 1 -19z m-3327 -32 c0 -14 -4 -28
-10 -31 -6 -4 -10 7 -10 24 0 17 5 31 10 31 6 0 10 -11 10 -24z m37 -88 c-2
-24 -4 -7 -4 37 0 44 2 63 4 43 2 -21 2 -57 0 -80z m906 46 c-6 -16 -33 -19
-33 -3 0 5 -6 7 -12 3 -10 -6 -10 -4 0 8 15 19 53 12 45 -8z m104 20 c-3 -3
-12 -4 -19 -1 -8 3 -5 6 6 6 11 1 17 -2 13 -5z m-46 -41 c0 -11 3 -13 6 -5 9
22 42 14 49 -13 3 -14 10 -25 15 -25 5 0 9 -9 9 -20 0 -11 -3 -20 -7 -20 -8 0
-11 -26 -15 -98 -1 -20 -4 -28 -9 -20 -15 23 -22 -22 -9 -50 10 -21 14 -23 17
-11 2 10 12 19 23 22 14 3 17 1 13 -11 -4 -10 -2 -13 5 -8 7 4 12 17 13 29 1
17 4 14 12 -12 8 -24 7 -38 -1 -52 -8 -12 -8 -19 -2 -19 18 0 10 -32 -9 -37
-11 -3 -21 -13 -24 -24 -6 -23 -37 -26 -37 -3 0 26 -28 -9 -33 -41 -2 -15 -11
-33 -21 -40 -12 -9 -14 -15 -6 -20 6 -4 9 -13 6 -21 -3 -8 1 -14 8 -14 17 0
26 -21 21 -46 -2 -11 -4 -25 -4 -33 -1 -11 -4 -11 -16 -1 -13 11 -15 8 -15
-14 0 -16 4 -25 10 -21 12 7 12 3 4 -19 -5 -13 -9 -14 -20 -5 -11 9 -14 8 -14
-7 0 -15 -5 -12 -19 11 -20 32 -18 50 5 41 18 -7 18 2 -1 20 -13 14 -15 14
-15 -1 0 -26 -36 0 -49 35 -5 17 -6 28 -1 25 5 -3 3 7 -5 22 -8 15 -15 45 -15
65 0 39 -16 60 -22 31 -3 -10 -4 27 -4 82 1 75 -2 99 -11 98 -21 -5 -15 11 9
26 16 10 23 10 26 2 2 -6 8 -8 14 -5 6 4 8 -1 6 -12 -2 -11 -10 -18 -16 -16
-16 3 -16 -30 0 -46 21 -21 25 -14 27 38 0 40 -3 52 -19 60 -11 6 -20 15 -20
21 0 6 5 7 10 4 6 -3 10 0 10 9 0 8 3 22 6 31 8 20 -18 16 -29 -5 -10 -20 0
31 13 65 6 15 17 25 30 25 12 0 20 7 21 18 1 16 2 16 6 -1 4 -16 7 -15 28 7
28 30 45 33 46 9z m-91 -3 c0 -5 -2 -10 -4 -10 -3 0 -8 5 -11 10 -3 6 -1 10 4
10 6 0 11 -4 11 -10z m2287 -197 c-2 -38 -3 -7 -3 67 0 74 1 105 3 68 2 -38 2
-98 0 -135z m-871 171 c2 -26 17 -64 25 -64 5 0 9 12 9 27 0 20 3 24 12 15 8
-8 17 -8 31 0 16 8 19 8 14 -4 -3 -8 -8 -41 -13 -74 -4 -32 -13 -69 -21 -81
-12 -18 -13 -28 -2 -57 10 -29 10 -38 -2 -52 -9 -11 -9 -15 -1 -10 6 4 12 2
12 -3 0 -6 -4 -11 -10 -11 -5 0 -7 -7 -4 -15 4 -10 0 -15 -12 -15 -13 0 -15
-3 -7 -8 14 -9 11 -58 -5 -74 -7 -7 -12 -27 -12 -45 0 -23 -5 -33 -15 -33 -8
0 -15 -6 -15 -14 0 -8 -5 -16 -12 -18 -6 -2 -13 -28 -15 -58 -1 -30 -7 -56
-11 -59 -5 -3 -14 -15 -21 -26 -10 -17 -10 -14 -5 20 4 22 9 44 12 49 7 12 12
59 14 121 1 28 3 40 5 28 3 -13 9 -23 14 -23 15 0 10 37 -6 54 -8 8 -18 29
-22 46 -3 18 -19 57 -35 89 -27 50 -57 144 -58 179 0 6 5 12 10 12 6 0 10 -17
11 -37 l1 -38 9 35 c4 19 5 44 2 55 -5 17 -3 18 9 8 8 -7 18 -10 21 -6 4 3 0
11 -9 17 -12 9 -13 17 -5 39 6 15 14 26 18 25 5 0 15 1 23 5 46 18 64 18 66 1z
m831 -16 c-3 -8 -6 -5 -6 6 -1 11 2 17 5 13 3 -3 4 -12 1 -19z m-1332 -8 c7
-11 -38 -24 -57 -17 -8 3 -4 9 12 15 32 14 38 14 45 2z m35 -4 c0 -3 -4 -8
-10 -11 -5 -3 -10 -1 -10 4 0 6 5 11 10 11 6 0 10 -2 10 -4z m-1823 -83 c-3
-10 -5 -2 -5 17 0 19 2 27 5 18 2 -10 2 -26 0 -35z m1298 37 c3 -5 2 -10 -4
-10 -5 0 -13 5 -16 10 -3 6 -2 10 4 10 5 0 13 -4 16 -10z m490 0 c3 -5 -1 -10
-10 -10 -9 0 -13 5 -10 10 3 6 8 10 10 10 2 0 7 -4 10 -10z m-155 -10 c0 -5
-7 -10 -16 -10 -8 0 -12 5 -9 10 3 6 10 10 16 10 5 0 9 -4 9 -10z m65 0 c3 -6
-4 -10 -17 -10 -18 0 -20 2 -8 10 19 12 18 12 25 0z m2 -26 c-3 -3 -12 -4 -19
-1 -8 3 -5 6 6 6 11 1 17 -2 13 -5z m-305 -95 c0 -11 1 -23 2 -29 1 -5 -3 -10
-9 -9 -16 1 -24 -38 -15 -70 5 -19 5 -31 -1 -31 -5 0 -9 -15 -9 -32 -1 -18 -7
-46 -14 -63 -11 -27 -13 -28 -19 -10 -3 11 -9 40 -13 65 -6 40 -8 42 -15 22
-12 -32 -26 -20 -44 40 -22 75 -20 82 30 102 24 10 44 21 43 25 -1 15 4 17 32
13 20 -3 30 -10 32 -23z m132 -17 c5 -17 12 -32 17 -32 4 0 2 -13 -4 -29 -9
-25 -8 -33 6 -49 9 -10 17 -23 17 -28 0 -5 -4 -2 -10 6 -5 8 -12 11 -16 7 -4
-3 -1 -13 5 -21 8 -10 9 -16 1 -21 -5 -3 -10 -17 -10 -29 0 -28 -25 -92 -40
-101 -11 -7 -12 -5 -15 48 -2 44 -12 58 -25 37 -6 -8 -10 -10 -10 -5 0 6 -5 3
-11 -5 -9 -13 -10 -13 -6 0 2 8 -1 26 -8 40 -7 14 -15 50 -18 80 -3 30 -2 44
2 30 9 -31 16 -19 26 40 9 58 20 70 58 67 26 -2 33 -8 41 -35z m-1847 -126
c-1 -80 -5 -148 -10 -152 -9 -10 -9 -27 1 -21 8 6 11 -30 11 -153 0 -55 -4
-87 -12 -92 -9 -6 -9 -8 0 -8 8 0 11 -22 11 -65 0 -36 -4 -65 -9 -65 -5 0 -9
-5 -9 -11 0 -5 5 -7 10 -4 11 7 12 -1 10 -250 -1 -99 -2 -193 -2 -210 0 -16
-2 -24 -5 -17 -8 20 -22 14 -16 -8 3 -11 9 -20 14 -20 5 0 8 -24 7 -52 l-1
-53 -7 50 c-6 45 -7 46 -10 15 -1 -19 -2 -38 -1 -42 0 -4 2 -35 2 -69 1 -38 5
-56 10 -47 6 9 9 5 9 -14 0 -16 -3 -27 -7 -27 -22 4 -43 -2 -43 -12 0 -6 8 -8
19 -4 13 4 20 0 24 -14 4 -17 2 -19 -20 -10 -14 5 -29 6 -35 3 -6 -4 -9 -3 -6
2 3 5 1 20 -4 34 -7 20 -11 22 -19 10 -8 -12 -9 -9 -7 10 2 14 9 24 16 23 6
-2 12 4 12 12 0 8 -6 15 -12 15 -9 0 -8 4 2 10 13 9 13 11 0 20 -10 6 -11 10
-3 10 10 0 12 61 9 263 -3 144 -6 277 -8 296 -2 18 -1 63 2 100 4 36 2 84 -2
106 -13 61 -18 202 -9 266 4 33 4 56 -1 53 -5 -3 -6 7 -2 22 4 17 3 25 -3 21
-6 -4 -10 21 -10 63 -1 76 -7 64 81 148 6 6 14 11 18 12 4 0 6 -65 5 -144z
m2119 9 c-4 -17 -12 -25 -20 -22 -8 3 -18 1 -23 -4 -12 -12 -5 -59 8 -59 15 0
10 -28 -7 -34 -8 -3 -12 -2 -9 4 12 19 -8 60 -37 75 -17 8 -34 12 -39 9 -12
-7 -12 52 0 74 5 9 12 26 16 37 4 12 9 15 13 9 11 -17 70 -13 78 5 11 24 28
-61 20 -94z m174 26 c0 -9 -10 -27 -21 -41 l-21 -25 6 28 c4 15 2 27 -4 27 -5
0 -12 -12 -16 -27 -11 -52 -14 -58 -39 -76 l-25 -18 0 30 c0 16 5 33 11 37 7
4 7 9 2 13 -6 3 -13 23 -16 43 -5 31 -2 40 16 53 12 8 28 15 37 15 11 0 12 -3
3 -8 -7 -5 -9 -13 -4 -21 7 -11 13 -8 26 13 l18 26 13 -26 c8 -14 14 -34 14
-43z m1127 17 c-2 -13 -4 -5 -4 17 -1 22 1 32 4 23 2 -10 2 -28 0 -40z m60 30
c-3 -8 -6 -5 -6 6 -1 11 2 17 5 13 3 -3 4 -12 1 -19z m-962 -78 c5 -17 4 -22
-3 -15 -5 6 -13 21 -17 35 -5 17 -4 22 3 15 5 -5 13 -21 17 -35z m962 -17 c-3
-10 -5 -2 -5 17 0 19 2 27 5 18 2 -10 2 -26 0 -35z m-1190 -35 c-3 -7 -5 -2
-5 12 0 14 2 19 5 13 2 -7 2 -19 0 -25z m-177 14 c0 -13 -12 -22 -22 -16 -10
6 -1 24 13 24 5 0 9 -4 9 -8z m-90 -17 c0 -8 -4 -15 -9 -15 -5 0 -11 7 -15 15
-3 9 0 15 9 15 8 0 15 -7 15 -15z m-390 -16 c0 -6 -4 -7 -10 -4 -5 3 -10 11
-10 16 0 6 5 7 10 4 6 -3 10 -11 10 -16z m583 -34 c-22 -17 -30 -11 -13 10 7
8 17 12 22 9 5 -3 1 -12 -9 -19z m1264 -157 c-3 -8 -6 -5 -6 6 -1 11 2 17 5
13 3 -3 4 -12 1 -19z m-3307 -363 c-1 -184 -4 -335 -8 -335 -4 0 -6 120 -5
267 2 391 3 403 8 403 3 0 5 -151 5 -335z m3476 118 c-4 -4 -11 -1 -16 7 -16
25 -11 35 7 17 9 -9 13 -20 9 -24z m-3525 -59 c0 -37 -3 -69 -6 -72 -3 -3 -5
30 -5 73 0 43 3 76 6 72 3 -3 6 -36 5 -73z m2099 -4 c-8 -5 -19 -10 -25 -10
-5 0 -3 5 5 10 8 5 20 10 25 10 6 0 3 -5 -5 -10z m-50 -10 c-8 -5 -22 -10 -30
-10 -32 0 -120 -67 -164 -124 -47 -61 -63 -69 -24 -13 42 63 84 100 143 128
59 28 109 41 75 19z m-612 -10 l27 0 -3 -552 c-2 -414 1 -559 9 -575 11 -21
20 -23 88 -23 76 0 90 15 21 23 -25 3 -19 4 21 5 l56 2 2 -57 c1 -31 -1 -77
-5 -101 l-7 -44 -313 6 c-173 3 -314 8 -314 11 0 3 0 38 0 79 l0 73 82 6 c49
4 85 12 89 19 5 7 4 15 -2 16 -6 3 -5 10 3 19 10 12 14 103 16 395 2 208 -1
378 -6 378 -4 0 -12 -4 -18 -9 -17 -17 -215 -121 -229 -121 -11 0 -15 13 -15
54 0 104 2 108 98 154 96 46 204 126 197 145 -3 7 10 29 28 50 24 28 43 40 77
46 25 5 51 7 58 5 8 -2 26 -4 40 -4z m840 -15 c73 -34 146 -113 193 -211 61
-126 72 -194 73 -444 1 -192 -1 -223 -20 -285 -35 -114 -74 -185 -136 -247
-66 -66 -90 -80 -177 -102 -119 -30 -247 10 -338 107 -41 43 -54 68 -81 148
-57 173 -67 455 -23 667 42 202 156 349 294 382 70 17 160 11 215 -15z m-2279
-174 c-2 -96 1 -134 11 -146 11 -13 10 -15 -2 -10 -18 7 -28 56 -28 136 0 59
10 149 17 149 2 0 3 -58 2 -129z m1227 80 c-6 -9 -129 -93 -162 -109 -32 -17
-130 -54 -123 -48 3 3 45 25 95 50 49 24 109 60 134 80 43 34 67 45 56 27z
m538 -215 c-3 -15 -8 -25 -11 -23 -2 3 -1 17 3 31 3 15 8 25 11 23 2 -3 1 -17
-3 -31z m-1764 -93 c0 -31 -2 -54 -4 -52 -9 9 -13 119 -5 113 5 -3 9 -30 9
-61z m3500 57 c0 -5 -2 -10 -4 -10 -3 0 -8 5 -11 10 -3 6 -1 10 4 10 6 0 11
-4 11 -10z m32 -59 c-2 -23 -9 -41 -14 -41 -7 0 -6 -5 1 -13 6 -8 11 -40 10
-73 0 -32 2 -78 5 -101 2 -24 0 -43 -5 -43 -13 0 -11 -44 3 -58 8 -8 8 -15 -1
-26 -15 -18 -10 -62 7 -58 14 2 16 -14 3 -23 -9 -5 -12 -30 -11 -90 0 -37 -10
-65 -25 -65 -11 0 -13 8 -9 30 4 16 2 36 -3 42 -5 7 -6 24 -2 38 4 14 8 18 8
10 1 -13 2 -13 11 0 14 22 12 30 -5 24 -12 -5 -15 5 -16 52 -1 33 -2 64 -4 69
-1 6 -3 26 -4 45 -1 27 -4 31 -11 20 -7 -11 -10 -2 -10 33 0 26 5 47 10 47 6
0 10 6 10 14 0 7 7 19 15 26 8 7 15 20 15 29 -1 14 -2 14 -14 -1 -20 -27 -26
-22 -15 14 5 18 9 56 9 85 0 41 4 52 18 56 26 6 28 2 24 -42z m-3483 -93 c1
-10 -3 -18 -9 -18 -5 0 -10 9 -10 20 0 11 -6 20 -12 21 -10 0 -10 2 0 6 6 2
12 12 13 21 1 20 16 -24 18 -50z m-49 4 c0 -15 -2 -15 -10 -2 -13 20 -13 33 0
25 6 -3 10 -14 10 -23z m-203 -44 c-3 -8 -6 -5 -6 6 -1 11 2 17 5 13 3 -3 4
-12 1 -19z m202 -88 c-1 -97 -3 -108 -16 -94 -10 9 -12 21 -7 32 5 9 9 37 9
62 2 82 5 110 10 110 3 0 5 -49 4 -110z m47 38 c2 -34 1 -38 -6 -18 -10 30
-12 76 -4 67 4 -4 8 -26 10 -49z m4 -104 c0 -8 -4 -14 -10 -14 -5 0 -10 9 -10
21 0 11 5 17 10 14 6 -3 10 -13 10 -21z m-218 -149 c2 -22 1 -32 -6 -25 -11
11 -16 71 -5 65 4 -3 9 -21 11 -40z m3635 23 c-3 -8 -6 -5 -6 6 -1 11 2 17 5
13 3 -3 4 -12 1 -19z m-3637 -109 c0 -5 -4 -9 -10 -9 -5 0 -10 7 -10 16 0 8 5
12 10 9 6 -3 10 -10 10 -16z m3647 -61 c-3 -8 -6 -5 -6 6 -1 11 2 17 5 13 3
-3 4 -12 1 -19z m-120 -30 c-3 -8 -6 -5 -6 6 -1 11 2 17 5 13 3 -3 4 -12 1
-19z m155 -20 c-3 -12 -1 -19 4 -15 5 3 8 -12 6 -34 -2 -22 1 -46 8 -54 7 -9
8 -15 2 -15 -14 0 -21 -34 -10 -54 5 -9 9 -49 8 -89 -1 -40 -2 -112 -2 -162 1
-64 -2 -83 -8 -67 -5 12 -7 29 -4 37 4 8 1 15 -5 15 -17 0 -13 -73 6 -99 9
-14 11 -21 5 -17 -7 4 -12 1 -12 -8 0 -9 5 -16 11 -16 7 0 10 -14 7 -35 -4
-36 7 -48 16 -17 3 9 3 4 0 -13 -3 -16 -6 -40 -6 -52 0 -14 -5 -20 -14 -16
-22 8 -16 -11 7 -25 16 -10 20 -20 15 -40 -13 -57 -14 -117 -4 -129 15 -19 2
-29 -17 -13 -19 16 -19 2 0 -43 17 -40 20 -113 6 -121 -5 -4 -8 12 -6 36 1 24
-3 50 -10 58 -7 9 -15 57 -18 115 -4 55 -6 101 -7 103 0 2 -4 0 -10 -3 -5 -3
-10 1 -10 10 0 9 5 13 10 10 6 -3 10 1 10 9 0 9 -6 16 -12 16 -9 0 -9 3 1 9
16 10 24 41 11 41 -5 0 -11 -6 -13 -12 -3 -7 -5 140 -5 327 0 187 3 327 7 310
3 -16 12 -31 20 -33 10 -2 12 5 7 30 -13 66 -13 86 0 81 6 -2 9 -13 6 -25z
m-155 -130 c-2 -18 -4 -4 -4 32 0 36 2 50 4 33 2 -18 2 -48 0 -65z m-2198 58
c-11 -10 -129 -17 -129 -7 0 5 27 11 63 13 61 3 74 2 66 -6z m2198 -243 c-3
-10 -5 -2 -5 17 0 19 2 27 5 18 2 -10 2 -26 0 -35z m0 -110 c-3 -10 -5 -4 -5
12 0 17 2 24 5 18 2 -7 2 -21 0 -30z m-3503 -10 c4 -9 1 -20 -6 -25 -18 -11
-28 -10 -28 2 0 6 5 10 10 10 6 0 10 5 10 11 0 6 -7 9 -15 5 -8 -3 -15 -1 -15
4 0 17 38 11 44 -7z m23 -235 c-3 -8 -6 -5 -6 6 -1 11 2 17 5 13 3 -3 4 -12 1
-19z m-7 -100 c0 -19 -4 -28 -8 -21 -5 8 -12 2 -21 -18 -7 -17 -15 -28 -18
-26 -2 3 5 23 16 45 11 22 17 42 14 46 -4 3 -1 6 5 6 7 0 12 -14 12 -32z m-47
-125 c-7 -3 -13 -9 -13 -14 0 -6 5 -7 10 -4 6 3 10 -1 10 -9 0 -10 -6 -13 -15
-10 -8 4 -15 12 -15 18 0 16 22 38 29 29 3 -3 0 -8 -6 -10z m3654 -145 c-3 -8
-6 -5 -6 6 -1 11 2 17 5 13 3 -3 4 -12 1 -19z m-3651 -36 c-12 -11 -18 7 -10
30 l8 23 4 -23 c2 -13 1 -26 -2 -30z m42 -14 c-10 -7 -10 -11 0 -15 6 -2 9
-10 5 -16 -6 -10 -13 -113 -11 -157 3 -54 3 -269 0 -287 -3 -13 -8 -20 -12
-18 -5 3 -11 1 -15 -5 -3 -5 0 -10 8 -10 26 0 29 -32 6 -57 -13 -12 -28 -23
-36 -23 -17 0 -17 -11 2 -36 13 -18 14 -18 8 6 -3 14 -2 22 2 18 5 -4 13 -3
20 2 9 7 12 -5 14 -50 2 -63 -9 -78 -25 -33 -7 21 -9 11 -10 -50 -1 -45 3 -74
8 -70 6 3 8 23 6 44 -2 25 1 39 8 39 8 0 11 -34 10 -117 -1 -109 -2 -117 -17
-103 -9 8 -26 22 -38 31 -19 15 -22 28 -26 137 -3 66 -5 125 -6 129 -3 20 2
34 11 28 6 -4 6 4 -1 22 -5 15 -8 38 -4 50 3 13 1 32 -5 43 -8 15 -6 29 7 57
23 52 26 60 14 43 -17 -24 -26 -2 -13 33 15 42 16 69 2 47 -8 -12 -10 -11 -10
5 0 11 7 31 17 44 15 22 15 25 0 36 -12 9 -15 21 -10 48 8 50 21 47 17 -3 -2
-22 1 -40 6 -40 13 0 28 32 23 48 -3 7 -2 20 2 30 5 13 8 14 14 3 7 -10 10 -9
14 3 4 10 1 16 -7 16 -8 0 -16 7 -20 15 -3 8 -1 15 3 15 5 0 12 -6 14 -12 3
-7 6 4 6 25 1 20 -3 37 -9 37 -16 0 -12 19 10 42 11 12 21 29 21 37 1 11 3 10
6 -3 3 -10 -1 -23 -9 -28z m3663 -35 c-12 -20 -14 -14 -5 12 4 9 9 14 11 11 3
-2 0 -13 -6 -23z m-1761 -13 c0 -5 -2 -10 -4 -10 -3 0 -8 5 -11 10 -3 6 -1 10
4 10 6 0 11 -4 11 -10z m80 -35 c14 -19 14 -19 -2 -6 -10 7 -18 18 -18 24 0 6
1 8 3 6 1 -2 9 -13 17 -24z m50 5 c0 -3 -4 -10 -8 -17 -6 -9 -11 -8 -19 5 -9
15 -7 18 8 18 11 0 19 -3 19 -6z m1637 -22 c-3 -8 -6 -5 -6 6 -1 11 2 17 5 13
3 -3 4 -12 1 -19z m-1513 0 c-5 -9 -2 -9 9 1 10 8 17 9 17 3 0 -6 -4 -13 -10
-17 -5 -3 -7 -12 -3 -20 3 -8 1 -15 -5 -15 -5 0 -13 8 -16 17 -6 15 -8 15 -16
3 -7 -12 -10 -11 -16 4 -4 11 -2 21 7 27 21 13 41 11 33 -3z m-527 -40 c-3 -7
-5 -2 -5 12 0 14 2 19 5 13 2 -7 2 -19 0 -25z m623 22 c0 -5 -5 -10 -11 -10
-5 0 -7 5 -4 10 3 6 8 10 11 10 2 0 4 -4 4 -10z m-173 -22 c-3 -8 -6 -5 -6 6
-1 11 2 17 5 13 3 -3 4 -12 1 -19z m53 -38 c0 -5 -2 -10 -4 -10 -3 0 -8 5 -11
10 -3 6 -1 10 4 10 6 0 11 -4 11 -10z m147 -56 c-3 -3 -12 -4 -19 -1 -8 3 -5
6 6 6 11 1 17 -2 13 -5z m77 -10 c4 -10 1 -14 -6 -12 -15 5 -23 28 -10 28 5 0
13 -7 16 -16z m126 -25 c0 -11 -4 -18 -10 -14 -5 3 -7 12 -3 20 7 21 13 19 13
-6z m-120 -41 c0 -6 -7 -5 -15 2 -8 7 -15 17 -15 22 0 6 7 5 15 -2 8 -7 15
-17 15 -22z m127 10 c6 17 23 15 23 -2 0 -8 13 -17 29 -21 27 -6 53 -35 32
-35 -5 0 -11 5 -13 11 -3 8 -9 7 -19 -3 -12 -13 -18 -13 -32 -3 -9 7 -17 17
-17 24 0 11 -13 15 -39 12 -7 -2 -10 2 -6 8 3 6 1 11 -5 11 -6 0 -8 5 -5 11 5
7 14 4 27 -8 15 -13 22 -15 25 -5z m-167 8 c0 -3 -4 -8 -10 -11 -5 -3 -10 -1
-10 4 0 6 5 11 10 11 6 0 10 -2 10 -4z m656 -22 c33 -15 53 -29 47 -31 -7 -3
-13 -11 -13 -19 0 -25 -45 -27 -98 -4 -47 20 -49 23 -35 40 15 17 18 17 41 2
14 -9 20 -18 13 -20 -6 -2 -18 2 -26 8 -9 7 -15 8 -15 2 0 -12 58 -37 67 -28
3 3 1 6 -6 6 -7 0 -9 5 -6 11 4 6 -3 21 -16 35 -28 30 -25 30 47 -2z m703
-131 c0 -25 -1 -25 -8 -8 -5 11 -7 23 -4 28 8 14 13 7 12 -20z m-789 -69 c0
-8 -5 -12 -10 -9 -6 4 -8 11 -5 16 9 14 15 11 15 -7z m-75 -33 c2 -11 0 -21
-6 -21 -5 0 -9 12 -9 27 0 30 9 27 15 -6z m895 -8 c0 -15 -2 -15 -24 -7 -22 9
-20 20 4 20 11 0 20 -6 20 -13z m-84 -150 c-3 -18 -1 -33 5 -33 5 0 9 -5 9
-11 0 -5 -4 -8 -9 -4 -13 7 -30 -26 -23 -45 3 -8 12 -21 21 -28 9 -8 10 -11 4
-7 -16 8 -17 -11 -2 -21 8 -5 8 -9 -1 -14 -12 -8 -10 -22 14 -80 5 -11 0 -16
-14 -17 -11 -1 -18 3 -14 8 3 5 3 27 -1 49 -5 29 -12 40 -28 42 -13 2 -23 13
-27 27 -5 23 -7 23 -22 7 -10 -9 -15 -23 -12 -31 3 -8 0 -12 -8 -11 -29 6 -48
19 -48 33 0 8 5 11 10 8 6 -3 10 1 10 9 0 9 -5 16 -10 16 -16 0 -80 44 -80 55
0 6 -10 16 -21 24 -18 10 -19 15 -8 22 8 5 19 9 24 9 6 0 3 -5 -5 -10 -12 -8
-11 -10 8 -10 12 0 32 -11 43 -24 12 -14 28 -22 35 -19 8 3 20 0 28 -6 7 -6
17 -7 21 -3 5 4 5 1 1 -5 -4 -8 -1 -13 7 -13 8 0 20 -7 27 -15 20 -24 39 -18
40 13 1 15 4 77 7 137 l6 110 9 -65 c5 -36 6 -80 4 -97z m29 115 c-5 -26 -4
-29 8 -19 13 10 15 4 16 -36 1 -80 2 -82 22 -88 19 -6 27 -25 10 -25 -12 0
-21 -39 -10 -46 15 -9 10 -60 -6 -74 -13 -11 -15 -8 -15 15 0 19 -4 26 -14 22
-10 -4 -12 0 -8 15 3 14 1 19 -6 14 -13 -8 -16 6 -5 18 10 10 13 66 3 66 -4 0
-7 13 -6 30 1 16 4 30 9 30 10 0 9 38 -2 45 -6 3 -8 18 -7 33 4 32 4 32 11 32
3 0 3 -14 0 -32z m53 -51 c0 -53 -1 -57 -8 -27 -19 83 -20 99 -6 94 9 -3 13
-25 14 -67z m-318 -29 c0 -4 -11 -2 -25 4 -14 6 -25 15 -25 19 0 4 11 2 25 -4
14 -7 25 -15 25 -19z m-3098 0 c24 -24 30 -54 16 -80 -12 -24 -28 -23 -28 1 0
11 -10 22 -22 26 -18 5 -19 8 -8 12 37 15 39 47 3 40 -26 -5 -26 -4 -8 9 24
18 21 18 47 -8z m3167 -38 c-1 -17 -3 -19 -6 -7 -2 9 -11 17 -18 17 -8 0 -16
4 -19 9 -3 5 5 8 19 7 20 -1 25 -6 24 -26z m-3278 -9 c7 11 9 10 9 -5 0 -12
-5 -16 -16 -12 -9 3 -20 6 -26 6 -6 0 -4 7 3 17 13 15 14 15 18 -2 2 -14 5
-15 12 -4z m2834 -1 c-3 -5 -12 -10 -18 -10 -7 0 -6 4 3 10 19 12 23 12 15 0z
m-2912 -79 c2 -72 -1 -78 -48 -85 -5 -1 -9 -10 -7 -20 2 -11 -1 -15 -7 -11 -6
3 -11 37 -11 74 0 63 2 69 25 79 14 7 28 19 32 27 10 27 15 8 16 -64z m136 43
c-15 -18 -22 -13 -13 10 3 9 10 13 16 10 5 -3 4 -12 -3 -20z m-94 -64 c3 -5 2
-10 -4 -10 -5 0 -13 5 -16 10 -3 6 -2 10 4 10 5 0 13 -4 16 -10z m3305 -20 c0
-13 -5 -18 -15 -14 -12 5 -13 10 -4 20 15 19 19 18 19 -6z m257 -85 c1 -19 -3
-35 -8 -35 -10 0 -12 31 -3 54 9 23 10 20 11 -19z m-47 -83 c0 -8 -1 -13 -3
-11 -1 2 -9 12 -16 22 -12 15 -12 17 3 11 9 -3 16 -13 16 -22z"/>
<path d="M922 7350 c14 -22 24 -19 15 5 -4 8 -11 15 -17 15 -6 0 -6 -7 2 -20z"/>
<path d="M4840 7332 c0 -11 7 -25 15 -32 12 -10 15 -9 15 8 0 11 -7 25 -15 32
-12 10 -15 9 -15 -8z"/>
<path d="M4825 7296 c10 -14 19 -26 22 -26 7 0 -17 39 -28 46 -6 3 -3 -5 6
-20z"/>
<path d="M4885 7280 c3 -5 1 -10 -5 -10 -6 0 -8 -4 -5 -10 4 -6 11 -5 19 3 15
13 12 27 -5 27 -6 0 -7 -4 -4 -10z"/>
<path d="M4912 7247 c-8 -10 -6 -13 9 -14 10 -1 19 5 19 13 0 17 -14 18 -28 1z"/>
<path d="M3450 6286 c0 -8 6 -16 13 -19 17 -6 49 12 42 24 -10 15 -55 11 -55
-5z"/>
<path d="M1770 6159 c0 -5 5 -7 10 -4 6 3 10 8 10 11 0 2 -4 4 -10 4 -5 0 -10
-5 -10 -11z"/>
<path d="M1754 6126 c-10 -25 0 -38 13 -17 8 13 9 22 3 26 -6 4 -13 -1 -16 -9z"/>
<path d="M3322 6050 c-10 -17 -10 -21 4 -27 22 -8 50 27 31 39 -18 11 -21 10
-35 -12z"/>
<path d="M1751 5944 c0 -11 3 -14 6 -6 3 7 2 16 -1 19 -3 4 -6 -2 -5 -13z"/>
<path d="M1776 5935 c4 -8 8 -15 10 -15 2 0 4 7 4 15 0 8 -4 15 -10 15 -5 0
-7 -7 -4 -15z"/>
<path d="M2196 5883 c-6 -14 -5 -15 5 -6 7 7 10 15 7 18 -3 3 -9 -2 -12 -12z"/>
<path d="M3092 5890 c2 -8 -4 -19 -15 -25 -33 -16 -31 -32 2 -27 36 5 47 28
24 50 -13 13 -15 13 -11 2z"/>
<path d="M3595 5803 c-2 -7 0 -13 6 -13 6 0 8 -9 4 -20 -5 -15 -3 -18 8 -14 8
3 18 13 21 22 3 9 8 22 11 28 4 8 -3 11 -19 10 -14 0 -28 -7 -31 -13z"/>
<path d="M2386 5795 c4 -8 11 -15 16 -15 6 0 5 6 -2 15 -7 8 -14 15 -16 15 -2
0 -1 -7 2 -15z"/>
<path d="M1585 5767 c-10 -8 -15 -19 -11 -26 10 -15 22 -7 29 19 6 24 6 24
-18 7z"/>
<path d="M2400 5762 c0 -13 23 -32 38 -32 7 0 12 5 10 12 -5 13 -48 31 -48 20z"/>
<path d="M2465 5730 c3 -5 8 -10 11 -10 2 0 4 5 4 10 0 6 -5 10 -11 10 -5 0
-7 -4 -4 -10z"/>
<path d="M2400 5671 c0 -6 4 -13 10 -16 6 -3 7 1 4 9 -7 18 -14 21 -14 7z"/>
<path d="M2535 5640 c3 -5 8 -10 11 -10 2 0 4 5 4 10 0 6 -5 10 -11 10 -5 0
-7 -4 -4 -10z"/>
<path d="M3498 5638 c8 -8 17 -8 34 0 22 10 21 11 -11 11 -27 1 -32 -2 -23
-11z"/>
<path d="M3677 5644 c-4 -4 -7 -17 -7 -28 1 -19 1 -20 11 -3 11 19 8 43 -4 31z"/>
<path d="M3450 5630 c0 -5 5 -10 11 -10 5 0 7 5 4 10 -3 6 -8 10 -11 10 -2 0
-4 -4 -4 -10z"/>
<path d="M2170 5610 c-10 -14 -16 -16 -22 -8 -4 7 -10 9 -14 5 -4 -4 -3 -12 3
-18 14 -14 53 6 53 26 0 20 -3 19 -20 -5z"/>
<path d="M1874 5605 c-4 -8 -9 -13 -13 -10 -7 4 -5 -37 5 -82 8 -40 19 -25 16
21 -2 24 1 53 7 65 8 14 8 21 1 21 -6 0 -13 -7 -16 -15z"/>
<path d="M3292 5594 c-7 -8 -10 -19 -6 -26 5 -7 10 -3 16 12 10 28 7 33 -10
14z"/>
<path d="M2460 5591 c0 -5 5 -13 10 -16 6 -3 10 -2 10 4 0 5 -4 13 -10 16 -5
3 -10 2 -10 -4z"/>
<path d="M2664 5521 c27 -27 57 -52 68 -54 11 -3 2 10 -24 33 -24 22 -46 39
-50 40 -5 0 -8 7 -8 15 0 8 -8 15 -17 15 -12 0 -3 -15 31 -49z"/>
<path d="M3074 5525 c-10 -8 -14 -15 -8 -15 6 0 17 7 24 15 16 19 9 19 -16 0z"/>
<path d="M2465 5370 c-3 -5 -4 -14 -1 -19 4 -5 1 -11 -6 -13 -9 -3 -9 -6 0
-12 7 -4 12 -2 12 4 0 6 5 8 10 5 6 -3 10 -2 10 4 0 5 -5 13 -10 16 -6 4 -8
11 -5 16 4 5 4 9 1 9 -3 0 -8 -4 -11 -10z"/>
<path d="M2510 5371 c0 -5 14 -16 30 -25 17 -8 30 -10 30 -5 0 4 -13 15 -30
24 -16 9 -30 11 -30 6z"/>
<path d="M3002 5342 c-19 -3 -20 -5 -8 -18 20 -20 53 -18 58 4 5 18 -3 21 -50
14z"/>
<path d="M2513 5316 c2 -6 20 -11 39 -11 45 0 40 11 -7 17 -22 2 -34 0 -32 -6z"/>
<path d="M2430 5274 c0 -9 33 -33 44 -34 6 0 0 9 -12 20 -22 21 -32 25 -32 14z"/>
<path d="M2690 5226 c0 -2 7 -9 15 -16 9 -7 15 -8 15 -2 0 5 -7 12 -15 16 -8
3 -15 4 -15 2z"/>
<path d="M1910 5203 c0 -10 5 -25 10 -33 8 -12 10 -9 10 12 0 15 -4 30 -10 33
-5 3 -10 -2 -10 -12z"/>
<path d="M2723 5179 c9 -5 18 -20 18 -32 1 -18 2 -18 6 -4 5 20 -13 47 -31 47
-6 0 -3 -5 7 -11z"/>
<path d="M3771 5144 c0 -11 3 -14 6 -6 3 7 2 16 -1 19 -3 4 -6 -2 -5 -13z"/>
<path d="M2841 5136 c11 -9 69 -15 64 -6 -3 6 -20 10 -37 10 -17 0 -29 -2 -27
-4z"/>
<path d="M3840 5100 c0 -5 5 -10 10 -10 6 0 10 5 10 10 0 6 -4 10 -10 10 -5 0
-10 -4 -10 -10z"/>
<path d="M1770 5055 c-7 -9 -11 -17 -9 -20 3 -2 10 5 17 15 14 24 10 26 -8 5z"/>
<path d="M2910 5050 c0 -11 4 -20 9 -20 11 0 22 26 14 34 -12 12 -23 5 -23
-14z"/>
<path d="M2030 5051 c0 -5 9 -11 20 -14 24 -6 27 8 4 17 -21 8 -24 8 -24 -3z"/>
<path d="M2716 5004 c-27 -9 -43 -11 -51 -4 -14 12 -38 -11 -41 -38 -6 -57
-30 -152 -38 -152 -5 0 -1 -9 10 -21 12 -14 17 -32 15 -59 -2 -33 2 -41 25
-56 26 -17 27 -17 43 2 9 11 22 19 29 16 14 -4 15 7 3 27 -12 18 8 39 31 33
10 -2 18 -8 18 -13 0 -5 4 -9 10 -9 5 0 7 8 3 18 -3 9 -2 13 3 9 4 -4 13 -22
19 -39 5 -17 17 -33 25 -36 10 -2 11 -1 4 5 -12 9 -15 43 -4 43 11 0 31 -50
24 -61 -3 -5 -2 -9 3 -8 4 1 10 1 13 -1 3 -1 18 -3 33 -5 24 -3 27 -1 22 16
-4 10 1 29 9 41 18 25 21 84 6 122 -6 16 -6 27 0 31 13 8 13 102 0 110 -5 3
-10 1 -10 -6 0 -10 -3 -10 -12 0 -10 11 -10 14 0 18 6 3 12 10 12 16 0 6 -7 4
-16 -5 -16 -15 -16 -20 0 -68 19 -58 16 -78 -4 -30 -7 17 -20 35 -29 40 -11 7
-13 12 -4 17 15 11 28 63 15 63 -5 0 -13 -8 -16 -17 -6 -15 -8 -15 -16 -3 -6
10 -10 11 -10 3 0 -14 -63 -6 -68 9 -5 10 -8 10 -56 -8z m-46 -65 c-7 -11 -14
-19 -16 -16 -7 7 7 37 17 37 6 0 5 -9 -1 -21z"/>
<path d="M2952 4961 c1 -18 7 -27 14 -24 7 2 14 -4 17 -14 4 -14 5 -14 6 5 0
12 -3 22 -9 22 -5 0 -10 9 -10 20 0 11 -5 20 -10 20 -6 0 -9 -13 -8 -29z"/>
<path d="M1740 4912 c0 -5 7 -15 15 -22 8 -7 15 -8 15 -2 0 5 -7 15 -15 22 -8
7 -15 8 -15 2z"/>
<path d="M3027 4904 c-4 -4 -7 -14 -7 -23 0 -11 3 -12 11 -4 6 6 10 16 7 23
-2 6 -7 8 -11 4z"/>
<path d="M3637 4868 c-7 -24 3 -42 10 -20 3 6 9 10 14 6 14 -9 10 12 -5 25
-11 9 -15 7 -19 -11z"/>
<path d="M1813 4867 c4 -10 7 -23 7 -28 0 -5 5 -9 10 -9 16 0 12 26 -7 41 -15
12 -16 12 -10 -4z"/>
<path d="M1874 4815 c11 -8 27 -15 35 -15 13 1 12 4 -3 15 -11 8 -27 15 -35
15 -13 -1 -12 -4 3 -15z"/>
<path d="M2951 4805 c1 -19 18 -51 18 -35 0 8 -4 22 -9 30 -5 8 -9 11 -9 5z"/>
<path d="M1690 4749 c0 -5 5 -7 10 -4 6 3 10 8 10 11 0 2 -4 4 -10 4 -5 0 -10
-5 -10 -11z"/>
<path d="M3130 4659 c0 -5 5 -7 10 -4 6 3 10 8 10 11 0 2 -4 4 -10 4 -5 0 -10
-5 -10 -11z"/>
<path d="M2371 4620 c0 -20 -5 -40 -11 -46 -6 -6 -3 -10 10 -10 21 0 23 11 10
61 l-8 30 -1 -35z"/>
<path d="M2650 4575 c-7 -9 -10 -18 -6 -22 3 -3 6 -1 6 5 0 7 9 12 19 12 11 0
23 5 26 10 10 16 -31 11 -45 -5z"/>
<path d="M2655 4536 l-30 -13 30 -5 c34 -7 38 -5 33 15 -2 13 -8 13 -33 3z"/>
<path d="M2580 4450 c8 -5 20 -10 25 -10 6 0 3 5 -5 10 -8 5 -19 10 -25 10 -5
0 -3 -5 5 -10z"/>
<path d="M1010 6304 c0 -9 -6 -14 -13 -11 -11 4 -14 -14 -13 -89 1 -52 5 -94
9 -94 5 0 6 -3 4 -7 -7 -11 -11 -191 -8 -278 2 -56 5 -64 11 -38 4 17 4 53 0
79 -6 39 -4 51 8 60 13 10 14 15 4 27 -13 15 -7 47 9 47 5 0 9 5 9 11 0 5 -4
7 -10 4 -6 -4 -10 15 -10 49 0 34 -5 56 -12 59 -7 3 -8 6 -3 6 6 1 9 23 9 51
-1 27 2 47 7 44 5 -3 9 0 9 5 0 6 -6 11 -12 12 -7 0 -4 4 7 9 11 5 14 9 8 9
-15 1 -18 31 -3 31 6 0 10 7 10 15 0 8 -4 15 -10 15 -5 0 -10 -7 -10 -16z"/>
<path d="M1021 5974 c0 -11 3 -14 6 -6 3 7 2 16 -1 19 -3 4 -6 -2 -5 -13z"/>
<path d="M991 5648 c0 -39 3 -48 9 -33 12 28 12 73 0 80 -6 4 -10 -14 -9 -47z"/>
<path d="M997 5503 c-4 -3 -7 -11 -7 -17 0 -6 5 -5 12 2 6 6 9 14 7 17 -3 3
-9 2 -12 -2z"/>
<path d="M985 5460 c-3 -5 -1 -10 4 -10 6 0 11 5 11 10 0 6 -2 10 -4 10 -3 0
-8 -4 -11 -10z"/>
<path d="M986 5291 c-4 -7 -5 -15 -2 -18 9 -9 19 4 14 18 -4 11 -6 11 -12 0z"/>
<path d="M993 5200 c0 -30 2 -43 4 -27 2 15 2 39 0 55 -2 15 -4 2 -4 -28z"/>
<path d="M982 5100 c0 -14 2 -19 5 -12 2 6 2 18 0 25 -3 6 -5 1 -5 -13z"/>
<path d="M986 5055 c4 -8 11 -15 16 -15 6 0 5 6 -2 15 -7 8 -14 15 -16 15 -2
0 -1 -7 2 -15z"/>
<path d="M990 4920 c0 -11 2 -20 4 -20 2 0 6 9 9 20 3 11 1 20 -4 20 -5 0 -9
-9 -9 -20z"/>
<path d="M984 4805 c5 -51 16 -56 16 -7 0 23 -4 42 -10 42 -5 0 -8 -16 -6 -35z"/>
<path d="M980 4651 c0 -6 4 -13 10 -16 6 -3 7 1 4 9 -7 18 -14 21 -14 7z"/>
<path d="M986 4393 c-6 -15 8 -32 27 -33 12 0 8 20 -7 35 -12 12 -15 12 -20
-2z"/>
<path d="M781 5234 c0 -11 3 -14 6 -6 3 7 2 16 -1 19 -3 4 -6 -2 -5 -13z"/>
<path d="M797 5036 c-4 -10 -1 -13 9 -9 15 6 19 23 5 23 -5 0 -11 -7 -14 -14z"/>
<path d="M4500 6187 c0 -20 4 -37 10 -37 5 0 7 14 3 33 -8 45 -13 47 -13 4z"/>
<path d="M4472 5815 c0 -16 2 -22 5 -12 2 9 2 23 0 30 -3 6 -5 -1 -5 -18z"/>
<path d="M4496 5554 c-8 -20 -8 -24 2 -24 4 0 8 9 9 20 2 24 -3 26 -11 4z"/>
<path d="M4476 5305 c4 -8 8 -15 10 -15 2 0 4 7 4 15 0 8 -4 15 -10 15 -5 0
-7 -7 -4 -15z"/>
<path d="M4500 4726 c0 -9 5 -16 10 -16 6 0 10 4 10 9 0 6 -4 13 -10 16 -5 3
-10 -1 -10 -9z"/>
<path d="M4481 4474 c0 -11 3 -14 6 -6 3 7 2 16 -1 19 -3 4 -6 -2 -5 -13z"/>
<path d="M4486 4297 c3 -10 9 -15 12 -12 3 3 0 11 -7 18 -10 9 -11 8 -5 -6z"/>
<path d="M4490 4260 c0 -5 5 -10 11 -10 5 0 7 5 4 10 -3 6 -8 10 -11 10 -2 0
-4 -4 -4 -10z"/>
<path d="M4510 4131 c0 -5 5 -13 10 -16 6 -3 10 -2 10 4 0 5 -4 13 -10 16 -5
3 -10 2 -10 -4z"/>
<path d="M4331 5644 c0 -11 3 -14 6 -6 3 7 2 16 -1 19 -3 4 -6 -2 -5 -13z"/>
<path d="M4327 5593 c-2 -5 0 -21 4 -38 7 -29 7 -29 8 8 1 35 -3 46 -12 30z"/>
<path d="M4280 5469 c0 -52 3 -62 20 -66 31 -8 33 -6 37 48 3 47 2 50 -12 35
-23 -22 -25 -20 -21 14 2 20 -1 30 -10 30 -10 0 -14 -16 -14 -61z m30 -49 c0
-5 -4 -10 -10 -10 -5 0 -10 5 -10 10 0 6 5 10 10 10 6 0 10 -4 10 -10z"/>
<path d="M1154 5735 c-13 -24 -12 -109 1 -113 5 -1 10 14 11 33 0 19 -4 35 -9
35 -5 0 -4 7 3 15 6 8 10 22 8 32 -4 17 -5 16 -14 -2z"/>
<path d="M1154 5461 c4 -5 0 -12 -6 -14 -8 -3 -6 -6 5 -6 9 -1 17 6 17 14 0 8
-5 15 -11 15 -5 0 -8 -4 -5 -9z"/>
<path d="M1165 5117 c-15 -17 -13 -55 2 -61 9 -4 12 6 11 34 -1 22 -2 40 -2
40 -1 -1 -6 -6 -11 -13z"/>
<path d="M2120 4479 c0 -5 5 -7 10 -4 6 3 10 8 10 11 0 2 -4 4 -10 4 -5 0 -10
-5 -10 -11z"/>
<path d="M2087 4454 c-4 -4 -7 -19 -6 -33 l0 -26 10 24 c10 26 8 47 -4 35z"/>
<path d="M2090 4360 c-13 -8 -12 -10 3 -10 9 0 17 5 17 10 0 12 -1 12 -20 0z"/>
<path d="M2012 4208 c1 -38 2 -39 5 -10 2 18 9 30 14 26 5 -3 7 -10 4 -15 -4
-5 -1 -9 4 -9 17 0 13 37 -5 44 -24 9 -24 9 -22 -36z"/>
<path d="M2117 4115 c-4 -8 -2 -17 3 -20 6 -4 10 3 10 14 0 25 -6 27 -13 6z"/>
<path d="M2055 4070 c3 -5 8 -10 11 -10 2 0 4 5 4 10 0 6 -5 10 -11 10 -5 0
-7 -4 -4 -10z"/>
<path d="M2105 4071 c-3 -6 -11 -9 -16 -6 -5 4 -9 -1 -9 -9 0 -9 -4 -16 -10
-16 -5 0 -10 -4 -10 -10 0 -5 7 -10 15 -10 8 0 15 6 15 13 0 9 3 9 9 -1 6 -10
10 -7 15 13 7 29 2 43 -9 26z"/>
<path d="M2090 4000 c0 -5 4 -10 9 -10 6 0 13 5 16 10 3 6 -1 10 -9 10 -9 0
-16 -4 -16 -10z"/>
<path d="M3380 4370 c8 -5 20 -10 25 -10 6 0 3 5 -5 10 -8 5 -19 10 -25 10 -5
0 -3 -5 5 -10z"/>
<path d="M3420 4361 c0 -5 5 -13 10 -16 6 -3 10 -2 10 4 0 5 -4 13 -10 16 -5
3 -10 2 -10 -4z"/>
<path d="M3477 4323 c-2 -5 -1 -19 4 -33 7 -25 10 -22 14 18 2 21 -9 31 -18
15z"/>
<path d="M3351 4304 c0 -11 3 -14 6 -6 3 7 2 16 -1 19 -3 4 -6 -2 -5 -13z"/>
<path d="M3470 4251 c0 -5 5 -13 10 -16 6 -3 10 -2 10 4 0 5 -4 13 -10 16 -5
3 -10 2 -10 -4z"/>
<path d="M3450 4137 c0 -15 4 -27 10 -27 5 0 9 9 7 20 -5 31 -17 36 -17 7z"/>
<path d="M3490 4140 c0 -5 5 -10 11 -10 5 0 7 5 4 10 -3 6 -8 10 -11 10 -2 0
-4 -4 -4 -10z"/>
<path d="M776 4153 c-6 -14 -5 -15 5 -6 7 7 10 15 7 18 -3 3 -9 -2 -12 -12z"/>
<path d="M851 3634 c0 -11 3 -14 6 -6 3 7 2 16 -1 19 -3 4 -6 -2 -5 -13z"/>
<path d="M849 3403 c-2 -41 2 -107 7 -112 2 -2 4 28 4 67 0 69 -9 102 -11 45z"/>
<path d="M2860 4200 c0 -5 5 -10 10 -10 6 0 10 5 10 10 0 6 -4 10 -10 10 -5 0
-10 -4 -10 -10z"/>
<path d="M2930 4199 c0 -5 5 -7 10 -4 6 3 10 8 10 11 0 2 -4 4 -10 4 -5 0 -10
-5 -10 -11z"/>
<path d="M3055 4230 c3 -5 8 -10 11 -10 2 0 4 5 4 10 0 6 -5 10 -11 10 -5 0
-7 -4 -4 -10z"/>
<path d="M2254 3508 l-19 -23 23 19 c21 18 27 26 19 26 -2 0 -12 -10 -23 -22z"/>
<path d="M3100 3453 c-42 -16 -91 -85 -104 -148 -27 -129 -37 -522 -16 -640
15 -83 59 -195 87 -223 44 -44 114 -16 165 66 82 134 87 667 6 853 -28 67 -92
110 -138 92z"/>
<path d="M4460 2948 c0 -4 4 -8 9 -8 6 0 12 4 15 8 3 5 -1 9 -9 9 -8 0 -15 -4
-15 -9z"/>
<path d="M4487 2403 c-4 -3 -7 -11 -7 -17 0 -6 5 -5 12 2 6 6 9 14 7 17 -3 3
-9 2 -12 -2z"/>
<path d="M4470 2351 c0 -11 4 -22 9 -25 5 -3 8 5 7 19 -1 29 -16 34 -16 6z"/>
<path d="M4473 2100 c0 -25 2 -35 4 -22 2 12 2 32 0 45 -2 12 -4 2 -4 -23z"/>
<path d="M4471 2024 c0 -11 3 -14 6 -6 3 7 2 16 -1 19 -3 4 -6 -2 -5 -13z"/>
<path d="M4470 1908 c0 -21 2 -38 4 -38 9 0 12 50 5 62 -6 8 -9 -1 -9 -24z"/>
<path d="M4500 1765 c0 -8 7 -15 15 -15 8 0 15 4 15 9 0 5 -7 11 -15 15 -9 3
-15 0 -15 -9z"/>
<path d="M801 1104 c0 -11 3 -14 6 -6 3 7 2 16 -1 19 -3 4 -6 -2 -5 -13z"/>
<path d="M820 976 c0 -9 5 -16 10 -16 6 0 10 4 10 9 0 6 -4 13 -10 16 -5 3
-10 -1 -10 -9z"/>
<path d="M812 597 c-9 -11 -10 -17 -2 -22 15 -9 23 -1 18 21 -3 15 -4 16 -16
1z"/>
<path d="M4345 650 c3 -5 8 -10 11 -10 2 0 4 5 4 10 0 6 -5 10 -11 10 -5 0 -7
-4 -4 -10z"/>
<path d="M4390 630 c0 -5 5 -10 10 -10 6 0 10 5 10 10 0 6 -4 10 -10 10 -5 0
-10 -4 -10 -10z"/>
</g>
</svg>
