<?xml version="1.0" standalone="no"?>
<!DOCTYPE svg PUBLIC "-//W3C//DTD SVG 20010904//EN"
 "http://www.w3.org/TR/2001/REC-SVG-20010904/DTD/svg10.dtd">
<svg version="1.0" xmlns="http://www.w3.org/2000/svg"
 width="602.000000pt" height="796.000000pt" viewBox="0 0 602.000000 796.000000"
 preserveAspectRatio="xMidYMid meet">

<g transform="translate(0.000000,796.000000) scale(0.100000,-0.100000)"
fill="#000000" stroke="none">
<path d="M5099 7713 c-122 -124 -202 -197 -235 -215 -113 -61 -17 -58 -1769
-57 -880 0 -1666 4 -1747 8 -207 12 -211 14 -445 252 -103 104 -191 189 -197
188 -6 0 -26 -19 -44 -42 -19 -23 -120 -132 -226 -242 -306 -319 -356 -373
-356 -382 0 -11 135 -143 374 -364 166 -153 203 -192 224 -237 l24 -54 -7
-3186 c-9 -3513 -8 -3292 -2 -3298 11 -11 40 14 112 97 52 60 83 88 93 84 8
-3 25 3 36 14 12 11 53 36 91 56 71 37 151 52 187 34 13 -7 22 1 42 34 33 57
45 66 94 70 23 3 47 9 54 15 41 33 254 122 293 122 9 0 42 13 75 30 42 21 67
28 88 24 21 -4 41 2 79 25 28 17 58 31 67 31 27 0 98 37 148 78 81 64 140 106
172 123 141 73 223 120 296 170 63 43 92 57 108 52 15 -3 24 0 28 11 4 9 30
29 58 43 28 14 78 51 111 82 82 78 128 111 153 111 31 0 114 -52 207 -130 44
-37 91 -73 104 -80 13 -6 37 -27 54 -46 16 -19 49 -46 73 -60 24 -14 58 -44
76 -66 20 -26 54 -51 92 -69 70 -33 79 -35 96 -14 18 22 44 18 72 -10 40 -40
340 -188 408 -202 16 -3 36 -16 45 -29 20 -31 78 -60 138 -68 27 -4 81 -21
120 -37 40 -17 104 -42 142 -56 72 -26 249 -115 275 -138 8 -7 26 -16 39 -20
21 -6 23 -5 16 11 -4 11 -9 30 -10 44 -3 23 -3 24 10 7 7 -10 30 -27 50 -38
74 -40 205 -129 205 -139 0 -6 4 -9 8 -6 11 7 84 -28 101 -47 23 -29 28 -19
20 40 -4 32 -10 116 -13 188 -13 312 -27 601 -36 740 -21 327 -30 1125 -29
2750 1 935 4 1935 8 2222 l6 522 30 31 c17 18 135 125 264 239 128 113 252
223 275 243 l41 36 -210 214 c-116 117 -268 273 -339 346 -70 72 -129 132
-130 132 -1 0 -85 -84 -187 -187z m241 46 c0 -10 19 -31 43 -48 23 -16 145
-130 272 -254 226 -221 229 -226 201 -233 -17 -4 -36 -2 -47 5 -24 15 -46 14
-52 -1 -4 -9 -8 -9 -14 -3 -10 12 -25 16 -78 20 -35 2 -48 12 -113 81 -170
180 -201 212 -236 239 -31 24 -36 33 -35 69 0 22 5 64 10 91 6 28 11 58 12 67
1 16 3 16 19 1 10 -9 18 -24 18 -34z m-4570 -30 c19 -20 47 -40 60 -44 14 -4
42 -26 64 -49 71 -76 154 -161 180 -185 14 -13 26 -27 26 -32 0 -9 -45 -2 -65
10 -5 3 -13 6 -17 6 -3 0 -10 4 -15 9 -4 5 -3 6 4 2 6 -3 14 -2 18 4 4 6 -5
10 -19 10 -14 0 -26 -5 -26 -11 0 -6 -7 -8 -16 -5 -15 6 -15 4 -2 -16 8 -12
41 -35 72 -51 41 -20 54 -32 45 -38 -7 -4 -17 -5 -21 -3 -4 3 -8 -2 -8 -10 0
-9 -4 -16 -10 -16 -5 0 -10 -4 -10 -10 0 -5 7 -7 15 -4 11 4 15 -1 15 -17 0
-18 3 -20 12 -11 7 7 24 12 39 12 15 0 35 3 44 6 14 6 14 8 -1 25 -27 30 -12
31 47 2 52 -26 61 -27 226 -28 95 -1 176 -4 180 -8 3 -4 1 -7 -6 -7 -7 0 -19
-7 -28 -16 -11 -10 -19 -12 -26 -5 -7 7 -18 6 -36 -3 -35 -17 -303 -15 -324 2
-10 9 -31 11 -65 6 -32 -4 -57 -2 -73 7 -13 6 -89 79 -169 161 -88 90 -153
148 -164 148 -11 0 -45 -26 -75 -58 -31 -32 -67 -67 -81 -77 l-25 -20 20 24
c11 13 50 53 87 89 52 51 65 69 56 79 -8 10 -5 13 12 13 22 0 22 1 6 19 -10
11 -15 24 -12 30 4 5 7 38 7 72 1 49 3 59 12 44 6 -11 27 -36 47 -56z m35 -7
c-3 -3 -11 0 -18 7 -9 10 -8 11 6 5 10 -3 15 -9 12 -12z m4465 -165 c0 -2 -19
-21 -42 -42 -39 -38 -35 -22 7 22 18 19 35 29 35 20z m-4542 -128 c-3 -16 -1
-29 2 -29 4 0 10 -18 14 -40 4 -26 10 -38 19 -34 8 3 18 -9 26 -31 7 -19 16
-35 21 -35 5 0 7 7 4 15 -4 8 -1 15 5 15 6 0 11 -4 11 -9 0 -5 7 -11 14 -14
11 -4 13 -1 9 11 -4 12 2 10 21 -8 l28 -25 -24 -3 c-12 -2 -30 -6 -38 -9 -8
-4 -30 -7 -49 -8 -18 -1 -36 -8 -40 -14 -6 -9 -14 -9 -34 0 -15 7 -27 16 -27
21 0 4 -22 8 -50 8 -27 0 -50 5 -50 10 0 6 15 10 33 10 53 0 67 18 82 104 8
43 11 85 8 94 -5 10 -3 13 6 7 8 -4 11 -20 9 -36z m4611 -67 c12 -51 18 -99
14 -105 -4 -7 0 -6 10 2 9 7 14 18 11 23 -4 6 4 5 16 -2 21 -11 22 -10 16 6
-5 13 2 10 24 -11 27 -26 29 -30 13 -33 -10 -2 -25 -6 -33 -9 -8 -3 -25 -5
-37 -4 -13 1 -27 -6 -35 -18 -17 -27 -28 -27 -25 0 1 17 -4 23 -25 26 -16 2
-28 0 -28 -5 0 -5 -24 -4 -53 1 l-54 10 30 28 c30 29 43 37 32 20 -3 -5 -1
-12 5 -16 5 -3 10 -1 10 6 0 7 3 9 7 6 3 -4 13 -1 21 6 13 10 14 9 8 -2 -6 -9
-5 -12 5 -9 8 3 14 12 14 21 0 8 4 19 8 23 4 4 7 39 7 78 0 38 4 66 8 61 5 -6
19 -52 31 -103z m-4895 80 c2 -4 -4 -9 -15 -9 -10 -1 -19 2 -19 8 0 11 27 12
34 1z m85 -49 c-14 -18 -84 -87 -136 -134 -23 -22 -31 -24 -41 -13 -15 16 -16
34 -1 34 5 0 7 -4 4 -10 -10 -16 11 -12 25 5 7 8 17 15 23 15 5 0 28 18 49 40
22 22 43 40 48 40 5 0 12 9 15 20 3 11 11 20 17 20 6 0 5 -7 -3 -17z m579 -21
c2 -7 -1 -12 -8 -12 -6 0 -8 5 -5 10 3 6 -3 10 -14 10 -11 0 -22 4 -25 9 -4 5
5 6 21 2 15 -4 28 -12 31 -19z m1832 -59 c-69 -23 -73 -23 -60 -8 7 8 27 15
44 14 17 0 24 -3 16 -6z m60 -7 c-7 -7 -14 -6 -21 1 -9 9 -7 12 9 10 14 -1 18
-5 12 -11z m777 -12 c-3 -3 -12 -4 -19 -1 -8 3 -5 6 6 6 11 1 17 -2 13 -5z
m-1676 -14 c74 -1 266 0 427 2 201 2 292 0 292 -8 0 -5 -6 -18 -12 -27 -12
-16 -43 -17 -309 -19 -162 -1 -300 1 -305 4 -5 3 -18 2 -29 -2 -11 -4 -35 -3
-54 1 -19 4 -39 5 -45 2 -13 -8 -486 -10 -486 -2 0 4 12 15 28 25 22 15 53 19
182 22 85 2 157 5 159 8 2 2 7 1 11 -1 4 -3 68 -5 141 -5z m1065 -5 c10 -4 27
-10 36 -15 10 -6 18 -6 20 0 6 17 90 25 252 22 136 -2 162 -5 179 -19 16 -14
19 -15 15 -3 -4 12 4 15 36 17 22 1 44 -4 48 -10 5 -8 11 -7 22 2 30 25 39 6
12 -24 -25 -27 -29 -28 -59 -17 -18 6 -48 9 -67 6 -53 -8 -310 -12 -315 -4 -2
3 -23 5 -47 4 -128 -7 -419 -4 -434 4 -14 8 -11 12 16 28 28 16 51 19 150 17
64 -1 125 -5 136 -8z m1083 4 c153 0 325 3 382 6 99 5 145 -3 125 -22 -5 -4
-11 -2 -13 5 -3 6 -12 12 -21 12 -15 0 -15 -2 -2 -10 12 -8 10 -10 -10 -11
-14 -1 -36 -1 -50 0 -19 1 -21 -1 -11 -8 9 -6 -6 -9 -47 -8 -52 1 -58 3 -44
14 23 17 1 16 -24 -1 -11 -8 -37 -17 -59 -21 -58 -10 -605 -13 -605 -3 0 5 -9
4 -19 -2 -25 -13 -61 -13 -61 -1 0 6 9 16 20 24 11 8 18 16 15 19 -3 3 23 6
57 7 34 1 64 4 66 6 3 2 9 2 14 -1 5 -3 134 -5 287 -5z m708 5 c-3 -3 -12 -4
-19 -1 -8 3 -5 6 6 6 11 1 17 -2 13 -5z m-4682 -14 c15 -6 9 -8 -22 -7 -24 1
-43 5 -43 10 0 9 40 8 65 -3z m5429 -39 c3 -5 -1 -11 -9 -14 -9 -4 -12 -1 -8
9 6 16 10 17 17 5z m-177 -168 c-79 -87 -127 -133 -127 -123 0 14 121 139 134
140 5 0 2 -8 -7 -17z m-4782 -281 c-3 -3 -11 0 -18 7 -9 10 -8 11 6 5 10 -3
15 -9 12 -12z m-10 -32 c3 -5 2 -10 -4 -10 -5 0 -13 5 -16 10 -3 6 -2 10 4 10
5 0 13 -4 16 -10z m4485 -304 c0 -3 -4 -8 -10 -11 -5 -3 -10 -1 -10 4 0 6 5
11 10 11 6 0 10 -2 10 -4z m-15 -106 c3 -5 1 -10 -4 -10 -6 0 -11 5 -11 10 0
6 2 10 4 10 3 0 8 -4 11 -10z m5 -52 c0 -5 -4 -8 -10 -8 -5 0 -10 10 -10 23 0
18 2 19 10 7 5 -8 10 -18 10 -22z m-28 -138 c5 0 7 -7 4 -16 -3 -8 -2 -13 2
-10 4 2 14 0 22 -5 9 -6 11 -12 5 -15 -5 -2 -8 -26 -7 -54 2 -27 8 -47 13 -44
5 3 9 -2 9 -10 0 -8 -10 -16 -22 -18 -16 -2 -22 -9 -20 -22 3 -16 2 -17 -11
-5 -7 8 -16 31 -20 52 -6 38 4 196 11 165 2 -10 8 -18 14 -18z m36 -257 c-3
-21 -1 -48 3 -60 5 -13 4 -25 -1 -28 -6 -4 -10 -18 -10 -32 0 -15 -3 -23 -7
-20 -3 4 -12 2 -20 -4 -7 -6 -13 -10 -14 -8 0 2 -4 43 -7 91 l-7 87 25 4 c14
2 29 5 34 6 4 0 6 -16 4 -36z m-14 -188 c-4 -17 -10 -23 -16 -17 -6 6 -6 18 2
32 6 12 14 20 16 17 3 -3 2 -17 -2 -32z m-19 -37 c6 -4 2 -8 -7 -8 -10 0 -18
7 -18 17 0 9 3 12 8 7 4 -5 12 -12 17 -16z m0 -58 c-3 -11 -2 -20 3 -20 6 0
13 -12 17 -27 12 -46 14 -123 4 -123 -5 0 -9 5 -9 12 0 6 -2 9 -5 7 -5 -5 15
-65 29 -89 5 -8 6 -12 1 -8 -5 5 -17 -6 -27 -23 -10 -17 -23 -27 -29 -23 -8 5
-8 9 0 14 9 5 8 10 -2 19 -12 9 -14 36 -12 124 4 153 4 149 15 142 6 -3 10 -1
10 4 0 6 3 11 6 11 3 0 2 -9 -1 -20z m-4317 -30 c14 0 17 -12 19 -62 1 -33 7
-64 13 -68 7 -4 10 -31 7 -73 -2 -37 0 -67 5 -67 4 0 7 -17 7 -37 -1 -38 -1
-38 -9 -8 -8 30 -8 30 -9 -8 -1 -23 3 -36 9 -32 6 3 10 -1 10 -10 0 -9 -4 -13
-10 -10 -6 4 -10 -10 -10 -34 0 -26 5 -41 13 -41 9 0 9 -2 -1 -8 -7 -5 -11
-26 -10 -51 1 -25 -4 -46 -11 -51 -10 -5 -10 -9 -2 -14 6 -4 9 -11 6 -16 -3
-5 -1 -19 5 -30 8 -16 8 -20 -4 -20 -8 0 -18 5 -21 10 -10 16 -25 12 -19 -5 4
-8 15 -15 25 -15 10 0 19 -5 19 -11 0 -5 -4 -7 -10 -4 -15 9 -12 -4 4 -21 10
-9 12 -27 9 -55 -4 -30 -3 -40 5 -35 13 8 17 -25 12 -119 0 -11 2 -45 5 -75
15 -145 16 -200 6 -200 -6 0 -11 -5 -11 -11 0 -5 5 -7 10 -4 12 7 13 -34 11
-435 -1 -242 -3 -297 -15 -305 -18 -14 -33 -85 -17 -85 6 0 11 -7 11 -15 0 -9
10 -20 23 -25 12 -5 16 -9 10 -9 -8 -1 -13 -14 -13 -33 0 -26 3 -30 11 -18 9
13 10 13 7 0 -3 -8 -15 -17 -29 -21 -23 -7 -22 -7 6 -9 28 -1 29 -2 8 -10 -13
-5 -23 -14 -23 -20 0 -14 17 -13 23 3 2 6 4 0 3 -15 0 -16 -4 -28 -8 -28 -5 0
-8 -8 -7 -17 0 -11 3 -13 6 -5 2 6 8 12 11 12 9 0 6 -86 -3 -100 -3 -5 -1 -10
4 -10 14 0 15 -137 1 -145 -5 -3 -10 1 -10 9 0 9 -4 16 -9 16 -4 0 -6 -11 -3
-25 2 -14 10 -25 18 -25 10 0 13 -17 11 -67 -2 -73 -8 -83 -49 -83 -20 0 -26
4 -22 15 5 11 10 12 26 4 25 -14 31 -8 22 25 -7 28 -24 36 -24 11 0 -12 -4
-11 -19 4 -16 16 -19 32 -12 75 0 4 8 5 17 2 13 -5 15 -1 12 19 -3 14 -2 25 2
25 4 0 4 18 0 40 -8 43 9 57 29 23 8 -14 10 -10 9 20 -1 21 -4 34 -7 29 -3 -5
-21 -13 -40 -17 -23 -5 -31 -4 -27 4 5 7 1 9 -8 5 -11 -4 -16 0 -16 10 0 15
11 20 38 17 17 -3 11 23 -8 30 -10 4 -4 9 18 13 38 9 40 18 7 36 -13 7 -22 17
-19 21 3 5 -2 19 -10 31 -17 27 -10 78 10 78 8 0 14 5 14 11 0 6 -8 8 -18 5
-16 -5 -19 0 -20 31 -1 21 -4 55 -7 75 -4 21 -3 43 2 50 14 22 10 357 -4 363
-7 2 -13 9 -13 15 0 6 5 8 12 4 8 -5 9 -2 3 12 -10 25 -12 114 -3 120 4 3 3
16 -2 30 -14 36 -12 54 5 54 8 0 15 7 15 15 0 18 20 20 21 3 0 -10 2 -10 6 0
2 6 11 12 19 12 11 0 14 15 14 62 0 34 -3 58 -7 55 -3 -4 -6 -23 -5 -42 1 -20
-3 -35 -10 -35 -6 0 -8 3 -5 7 4 3 -1 15 -10 26 -10 11 -13 17 -7 14 12 -7 30
40 19 51 -3 3 -5 -2 -5 -11 0 -40 -61 3 -73 51 -4 18 -2 22 9 18 9 -4 12 -2 8
5 -4 6 0 15 7 20 8 5 10 9 4 9 -6 0 -11 40 -13 95 -2 78 0 94 12 89 21 -8 28
12 9 27 -12 10 -14 10 -9 2 4 -7 2 -13 -3 -13 -12 0 -13 39 -9 385 1 116 1
284 1 375 0 91 2 159 4 153 3 -7 12 -13 21 -13z m2819 -174 c4 -4 -10 -5 -32
-1 -38 6 -37 5 18 -18 135 -58 213 -155 280 -345 29 -85 30 -92 31 -282 1
-235 -7 -318 -44 -431 -59 -181 -147 -301 -259 -357 -49 -24 -67 -27 -151 -27
-85 1 -101 4 -154 30 -108 54 -197 166 -238 300 -25 82 -40 208 -45 376 -5
153 -3 200 11 265 27 125 55 203 97 276 91 156 217 226 400 223 43 0 82 -4 86
-9z m-991 -93 c-7 -127 -8 -239 -2 -488 3 -121 6 -310 6 -420 0 -110 4 -207 9
-214 5 -8 31 -18 58 -22 45 -6 46 -6 11 -8 -21 0 -38 -5 -38 -9 0 -5 26 -7 58
-6 86 5 90 6 57 14 l-30 8 31 1 c39 1 44 -10 44 -97 0 -119 41 -107 -366 -104
l-354 2 0 95 c0 109 -7 103 120 103 77 -1 80 -2 35 -9 -27 -4 -71 -8 -97 -8
-27 -1 -48 -4 -48 -8 0 -13 189 2 202 15 7 7 8 12 3 12 -5 0 1 7 13 16 l23 16
-2 428 c0 236 2 434 6 440 11 17 -31 11 -56 -9 -13 -10 -64 -39 -114 -65 -49
-26 -100 -54 -112 -63 l-23 -15 0 105 0 105 93 55 c50 31 107 66 125 78 17 11
32 19 32 16 0 -6 -180 -126 -217 -146 -17 -9 -23 -20 -21 -44 l1 -32 4 33 c2
17 9 32 14 32 15 0 193 116 214 140 10 11 14 20 10 20 -5 0 4 13 20 30 15 16
33 27 38 23 6 -3 7 -1 3 5 -3 6 1 17 9 25 8 9 15 20 15 26 0 7 40 11 115 11
l116 0 -5 -87z m651 61 c-21 -14 -41 -23 -44 -20 -6 6 56 46 72 46 5 0 -8 -12
-28 -26z m-57 -37 c0 -2 -10 -12 -22 -23 l-23 -19 19 23 c18 21 26 27 26 19z
m-80 -91 c-43 -63 -59 -69 -18 -7 18 28 37 51 41 51 4 0 -6 -20 -23 -44z
m2005 -25 c3 -5 1 -12 -5 -16 -16 -10 -11 -25 6 -18 12 4 15 2 12 -8 -3 -8
-10 -13 -15 -12 -5 1 -14 -7 -21 -18 -7 -10 -8 -19 -3 -19 5 0 12 6 15 13 3 6
4 -19 3 -58 -2 -53 -6 -70 -17 -72 -25 -5 -46 55 -40 112 4 28 6 62 4 78 -1
24 2 27 27 27 15 0 30 -4 34 -9z m-2074 -94 c-10 -9 -11 -8 -5 6 3 10 9 15 12
12 3 -3 0 -11 -7 -18z m-2214 -109 c-3 -7 -5 -2 -5 12 0 14 2 19 5 13 2 -7 2
-19 0 -25z m2160 -70 c-3 -8 -6 -5 -6 6 -1 11 2 17 5 13 3 -3 4 -12 1 -19z
m2117 -91 c3 -23 8 -68 10 -101 2 -32 9 -62 16 -66 9 -6 11 -26 5 -76 -4 -38
-7 -98 -6 -133 1 -56 -1 -62 -14 -51 -11 9 -15 9 -15 1 0 -6 7 -14 15 -17 8
-4 15 -13 15 -21 0 -9 -6 -13 -15 -9 -10 4 -15 -1 -15 -14 0 -11 7 -20 15 -20
18 0 20 -43 4 -88 l-11 -31 -29 21 c-28 21 -29 23 -10 33 23 12 13 42 -10 33
-12 -4 -14 25 -13 161 1 91 2 186 4 211 2 42 3 43 10 15 8 -30 10 -26 14 28 1
6 8 15 16 19 10 4 6 7 -12 7 -26 1 -26 2 -27 70 0 58 2 70 17 74 26 6 30 0 36
-46z m-4277 -19 c-3 -7 -5 -2 -5 12 0 14 2 19 5 13 2 -7 2 -19 0 -25z m2140
10 c-3 -8 -6 -5 -6 6 -1 11 2 17 5 13 3 -3 4 -12 1 -19z m0 -55 c-3 -10 -5 -4
-5 12 0 17 2 24 5 18 2 -7 2 -21 0 -30z m2102 -590 c-3 -73 0 -107 8 -99 4 4
6 26 5 49 -2 27 0 37 6 29 15 -23 7 -100 -13 -122 -16 -17 -16 -20 -2 -20 13
0 14 -6 7 -31 -7 -24 -6 -30 4 -26 10 4 13 -5 10 -41 -1 -25 2 -54 7 -64 8
-14 6 -18 -9 -18 -10 0 -28 -9 -40 -20 l-22 -21 0 26 c0 14 5 24 12 23 7 -2
13 3 14 10 1 6 2 17 3 23 0 5 6 7 11 4 6 -3 10 1 10 9 0 9 -4 16 -9 16 -6 0
-10 8 -10 18 0 9 -3 74 -7 143 -6 116 -4 159 11 159 3 0 4 -21 4 -47z m-4112
-100 c-3 -10 -5 -2 -5 17 0 19 2 27 5 18 2 -10 2 -26 0 -35z m60 -75 c-3 -8
-6 -5 -6 6 -1 11 2 17 5 13 3 -3 4 -12 1 -19z m0 -195 c-2 -21 -4 -4 -4 37 0
41 2 58 4 38 2 -21 2 -55 0 -75z m-50 -5 c-2 -13 -4 -5 -4 17 -1 22 1 32 4 23
2 -10 2 -28 0 -40z m4144 -90 c18 -30 20 -47 18 -188 -1 -85 -1 -220 0 -300 1
-80 -1 -165 -4 -190 -7 -50 -8 -173 -2 -267 3 -45 0 -63 -10 -67 -7 -3 -13
-10 -13 -16 0 -6 5 -8 10 -5 12 7 13 -1 10 -130 -2 -55 -2 -111 -2 -125 0 -14
3 -78 5 -143 3 -95 1 -117 -10 -113 -10 4 -9 -2 3 -25 8 -17 11 -29 6 -25 -23
14 -29 -129 -7 -181 8 -19 15 -37 15 -39 0 -2 -7 -1 -15 2 -8 4 -15 1 -15 -5
0 -6 5 -11 11 -11 8 0 8 -4 2 -12 -7 -10 -8 -204 -1 -373 0 -11 -2 -71 -5
-133 -4 -94 -3 -115 10 -128 12 -11 13 -18 5 -23 -6 -4 -9 -18 -6 -31 10 -50
12 -95 3 -112 -5 -9 -10 -28 -11 -42 -2 -25 -9 -30 -35 -27 -16 2 -17 -15 -1
-25 6 -4 21 4 34 19 l22 26 -1 -87 c-2 -65 1 -86 11 -84 14 2 17 -54 3 -62 -4
-3 -4 -30 0 -60 12 -71 6 -120 -14 -124 -9 -2 -17 -11 -19 -20 -3 -11 -9 -2
-18 23 -7 22 -23 47 -35 57 -27 21 -35 71 -23 137 5 25 9 82 9 125 1 44 5 89
9 100 7 17 9 18 9 4 1 -10 7 -18 15 -18 17 0 10 37 -12 63 -12 14 -16 48 -16
170 -1 83 0 137 2 120 2 -18 7 -33 11 -33 4 0 3 26 -1 58 -22 155 -26 227 -16
233 11 7 8 24 -8 63 -4 11 -4 17 2 14 5 -4 10 5 10 18 1 13 -1 22 -5 20 -3 -2
-7 22 -8 55 -1 32 2 59 6 59 12 0 2 195 -10 199 -8 2 -8 6 -1 10 6 4 12 104
15 268 2 144 0 260 -4 257 -5 -3 -9 1 -9 10 0 23 11 46 20 41 4 -2 7 42 6 98
0 56 2 115 6 130 5 19 3 30 -6 33 -10 4 -13 57 -12 234 1 207 -4 264 -17 213
-3 -10 -5 3 -6 30 0 26 4 47 9 47 6 0 10 -10 10 -22 0 -18 2 -20 10 -8 6 9 6
18 0 24 -6 6 -10 20 -10 33 0 13 -4 23 -10 23 -5 0 -10 10 -10 23 0 15 3 18 8
9 5 -8 8 1 8 23 -1 19 -4 35 -7 35 -3 0 -6 35 -6 78 1 67 3 79 21 89 33 19 45
15 67 -19z m-4144 -120 c-3 -8 -6 -5 -6 6 -1 11 2 17 5 13 3 -3 4 -12 1 -19z
m-131 -3 c-3 -8 -1 -15 4 -15 6 0 10 -10 10 -22 l0 -22 -20 20 c-21 20 -19 54
2 54 6 0 8 -7 4 -15z m191 -97 c-2 -24 -4 -7 -4 37 0 44 2 63 4 43 2 -21 2
-57 0 -80z m-60 50 c-3 -8 -6 -5 -6 6 -1 11 2 17 5 13 3 -3 4 -12 1 -19z m0
-240 c-2 -24 -4 -5 -4 42 0 47 2 66 4 43 2 -24 2 -62 0 -85z m60 80 c-3 -7 -5
-2 -5 12 0 14 2 19 5 13 2 -7 2 -19 0 -25z m0 -75 c-3 -10 -5 -4 -5 12 0 17 2
24 5 18 2 -7 2 -21 0 -30z m4000 -160 c-2 -27 -3 -5 -3 47 0 52 1 74 3 48 2
-27 2 -69 0 -95z m-4060 55 c-2 -13 -4 -5 -4 17 -1 22 1 32 4 23 2 -10 2 -28
0 -40z m0 -200 c-2 -35 -3 -9 -3 57 0 66 1 94 3 63 2 -32 2 -86 0 -120z m-190
137 c-4 -8 -11 -15 -17 -15 -6 0 -6 7 2 20 14 22 24 19 15 -5z m250 -57 c-3
-8 -6 -5 -6 6 -1 11 2 17 5 13 3 -3 4 -12 1 -19z m-242 -128 c3 -5 1 -10 -4
-10 -6 0 -11 5 -11 10 0 6 2 10 4 10 3 0 8 -4 11 -10z m208 -72 c25 6 22 0
-10 -17 -22 -11 -23 -10 -22 26 2 28 3 31 6 12 3 -22 8 -26 26 -21z m-136 -44
c1 -45 0 -46 -7 -14 l-7 35 -2 -37 c0 -20 3 -38 9 -40 5 -1 -2 -8 -15 -14 -22
-11 -24 -10 -15 6 6 10 10 25 9 32 0 10 -2 10 -6 1 -9 -23 -18 -14 -18 17 0
17 7 35 15 41 12 8 10 9 -7 4 -13 -4 -23 -2 -23 4 0 9 35 20 55 16 6 -1 11
-24 12 -51z m4170 -51 c-2 -16 -4 -3 -4 27 0 30 2 43 4 28 2 -16 2 -40 0 -55z
m0 -75 c-3 -7 -5 -2 -5 12 0 14 2 19 5 13 2 -7 2 -19 0 -25z m-4209 -74 c-4
-3 -12 5 -18 18 -12 22 -12 22 6 6 10 -10 15 -20 12 -24z m-32 -31 c-10 -10
-19 5 -10 18 6 11 8 11 12 0 2 -7 1 -15 -2 -18z m9 -23 c3 -5 1 -10 -4 -10 -6
0 -11 5 -11 10 0 6 2 10 4 10 3 0 8 -4 11 -10z m52 -32 c-3 -7 -5 -2 -5 12 0
14 2 19 5 13 2 -7 2 -19 0 -25z m4080 -20 c-3 -8 -6 -5 -6 6 -1 11 2 17 5 13
3 -3 4 -12 1 -19z m0 -70 c-2 -13 -4 -5 -4 17 -1 22 1 32 4 23 2 -10 2 -28 0
-40z m0 -165 c-3 -10 -5 -2 -5 17 0 19 2 27 5 18 2 -10 2 -26 0 -35z m-4145
-65 c-2 -21 -8 -38 -13 -38 -5 0 -7 6 -5 13 3 6 7 25 11 41 8 39 13 29 7 -16z
m58 22 l2 25 7 -25 c4 -14 4 -26 -1 -28 -4 -2 -8 -12 -8 -22 0 -10 -4 -22 -10
-25 -5 -3 -10 -15 -10 -26 0 -10 -7 -19 -15 -19 -15 0 -13 12 11 59 10 19 10
26 -2 38 -17 18 -18 30 -1 36 6 2 15 -6 19 -17 6 -19 6 -19 8 4z m17 -127 c-2
-16 -4 -5 -4 22 0 28 2 40 4 28 2 -13 2 -35 0 -50z m-67 53 c0 -2 -7 -9 -15
-16 -13 -11 -14 -10 -9 4 5 14 24 23 24 12z m4140 -36 c0 -24 -3 -28 -17 -23
-11 4 -12 8 -5 11 7 2 12 12 12 23 0 10 2 19 5 19 3 0 5 -13 5 -30z m-3893
-67 c-3 -10 -5 -4 -5 12 0 17 2 24 5 18 2 -7 2 -21 0 -30z m-179 -41 c-1 -43
-2 -48 -5 -19 -2 20 -9 37 -14 37 -5 0 -9 -6 -8 -12 4 -32 -1 -39 -19 -29 -13
7 -17 18 -14 43 3 28 8 33 33 35 l29 2 -2 -57z m4269 26 c-3 -8 -6 -5 -6 6 -1
11 2 17 5 13 3 -3 4 -12 1 -19z m-4339 -69 c-4 -47 -18 -46 -18 1 0 25 4 39
10 35 6 -4 9 -20 8 -36z m70 -106 c-1 -84 -2 -85 -7 -28 -3 33 -4 72 -2 88 7
53 11 26 9 -60z m-26 45 c-9 -9 -12 -7 -12 12 0 19 3 21 12 12 9 -9 9 -15 0
-24z m-65 -75 c-3 -10 -5 -2 -5 17 0 19 2 27 5 18 2 -10 2 -26 0 -35z m40 15
c-3 -8 -6 -5 -6 6 -1 11 2 17 5 13 3 -3 4 -12 1 -19z m28 -20 c-1 -36 -15 -69
-26 -62 -6 4 -6 11 1 19 6 7 10 17 9 21 -1 5 -1 17 0 27 2 25 17 21 16 -5z
m-46 -95 c1 -7 -3 -13 -9 -13 -5 0 -10 15 -9 33 0 27 2 29 9 12 5 -11 9 -26 9
-32z m70 -260 c-1 -159 -3 -280 -6 -270 -7 26 -23 21 -23 -8 0 -16 6 -25 15
-25 10 0 15 -10 14 -32 -1 -18 -3 -25 -6 -15 -2 9 -9 17 -15 17 -5 0 -7 -8 -4
-17 4 -9 1 -20 -6 -25 -7 -4 -8 -8 -2 -8 6 0 9 -13 6 -31 -3 -20 -1 -30 6 -25
29 18 30 -84 1 -110 -22 -19 -22 -19 -10 4 7 12 9 28 5 34 -4 7 -3 8 4 4 8 -5
12 3 12 23 0 17 -4 31 -8 31 -13 0 -29 -55 -25 -86 11 -92 17 -119 27 -131 32
-41 49 -54 61 -49 48 18 39 -105 -12 -161 -8 -9 -14 -10 -18 -3 -10 16 -65 8
-65 -10 -1 -12 -3 -12 -14 3 -13 17 -14 16 -19 -3 -3 -11 -10 -20 -17 -20 -6
0 -8 5 -5 10 3 6 3 15 -1 21 -4 8 -9 7 -15 -2 -7 -12 -9 -11 -10 1 0 8 -2 23
-4 33 -2 10 2 42 10 70 7 28 11 57 8 64 -3 7 0 20 7 28 10 12 10 15 0 15 -8 0
-10 9 -6 28 4 15 6 52 5 82 -1 30 -2 76 -2 103 1 26 -4 47 -9 47 -6 0 -5 6 2
15 10 12 10 15 -1 15 -11 0 -11 2 1 10 11 7 12 12 4 20 -8 8 -7 25 2 62 8 28
11 54 9 59 -3 4 -1 27 4 51 16 73 22 145 10 128 -7 -11 -8 1 -3 43 3 31 2 57
-2 57 -5 0 -10 18 -12 40 -2 32 2 41 20 51 16 9 23 9 26 0 2 -6 9 -11 15 -11
8 0 7 4 -1 12 -17 17 -15 35 4 42 12 4 15 2 11 -9 -4 -8 -3 -17 2 -19 4 -3 6
-32 4 -65 -2 -38 0 -61 7 -61 6 0 10 48 10 130 0 72 2 130 5 130 3 0 4 -129 4
-287z m-39 241 c0 -8 -5 -12 -10 -9 -6 4 -8 11 -5 16 9 14 15 11 15 -7z m5
-34 c3 -5 -3 -10 -14 -10 -14 0 -21 -6 -21 -19 0 -11 -4 -23 -10 -26 -6 -4
-10 8 -10 29 0 31 3 36 24 36 14 0 28 -4 31 -10z m2195 -17 c0 -3 -7 -3 -15 1
-8 3 -15 1 -15 -5 0 -6 -5 -7 -11 -3 -8 4 -7 9 2 14 12 8 39 3 39 -7z m10 -77
c0 -3 -4 -8 -10 -11 -5 -3 -10 -1 -10 4 0 6 5 11 10 11 6 0 10 -2 10 -4z m-13
-48 c-3 -8 -6 -5 -6 6 -1 11 2 17 5 13 3 -3 4 -12 1 -19z m-631 -257 c-13 -15
-14 -20 -4 -24 8 -4 7 -6 -4 -6 -21 -1 -25 35 -5 42 25 11 30 6 13 -12z m2735
-44 c-8 -8 -11 -5 -11 9 0 27 14 41 18 19 2 -9 -1 -22 -7 -28z m-1214 -93 c-3
-3 -12 -4 -19 -1 -8 3 -5 6 6 6 11 1 17 -2 13 -5z m-120 -20 c-3 -3 -12 -4
-19 -1 -8 3 -5 6 6 6 11 1 17 -2 13 -5z m276 -25 c20 -1 20 -2 -3 -8 -30 -9
-62 -2 -54 11 3 5 13 7 21 4 8 -3 24 -6 36 -7z m-3206 -31 c-3 -7 -5 -2 -5 12
0 14 2 19 5 13 2 -7 2 -19 0 -25z m180 -70 c-2 -18 -4 -6 -4 27 0 33 2 48 4
33 2 -15 2 -42 0 -60z m-70 15 c-3 -10 -5 -2 -5 17 0 19 2 27 5 18 2 -10 2
-26 0 -35z m3153 33 c0 -2 -9 -6 -20 -9 -11 -3 -20 -1 -20 4 0 5 9 9 20 9 11
0 20 -2 20 -4z m-160 -27 c0 -4 -4 -11 -10 -14 -5 -3 -10 -1 -10 4 0 6 -7 11
-16 11 -8 0 -13 4 -10 9 7 11 46 2 46 -10z m85 3 c-3 -8 0 -21 7 -29 6 -8 7
-13 2 -12 -23 4 -26 -2 -8 -17 14 -12 11 -11 -11 2 -48 29 -53 36 -36 54 19
21 54 22 46 2z m134 11 c-6 -35 40 -44 49 -11 8 31 22 20 15 -12 -4 -24 -3
-29 9 -25 9 4 18 -1 21 -9 4 -9 16 -16 28 -16 31 0 17 -10 -20 -15 -21 -3 -31
0 -31 9 0 7 -6 13 -14 13 -8 0 -14 -5 -13 -11 1 -5 -6 -12 -15 -14 -12 -2 -19
5 -24 23 -5 20 -11 24 -28 20 -11 -2 -15 -2 -9 1 8 3 11 15 7 30 -5 18 -2 24
10 24 9 0 15 -3 15 -7z m221 -18 c-7 -8 -17 -12 -23 -8 -6 4 -3 9 9 14 27 11
28 11 14 -6z m484 -15 c-4 -19 -2 -30 4 -30 6 0 9 7 6 15 -4 10 0 15 16 15 17
0 20 -4 15 -20 -4 -12 -1 -27 5 -35 16 -20 3 -40 -16 -24 -8 6 -14 18 -14 25
0 8 -4 14 -10 14 -20 0 -9 -21 27 -55 20 -19 31 -35 23 -35 -11 0 -11 -3 -2
-12 17 -17 15 -31 -14 -73 -17 -25 -20 -36 -10 -32 21 8 30 -10 29 -58 -1 -22
1 -31 4 -20 8 33 23 42 23 14 0 -14 9 -36 20 -49 11 -13 20 -28 20 -33 0 -6
10 -21 22 -34 25 -27 20 -31 -9 -5 -11 9 -23 27 -27 40 -4 12 -12 19 -18 16
-6 -4 -14 0 -19 7 -7 11 -9 9 -9 -8 0 -20 -2 -20 -37 -10 -23 7 -31 13 -20 15
9 2 17 11 17 21 0 9 6 23 13 30 10 10 9 11 -5 6 -13 -5 -19 0 -24 19 l-6 26
-31 -22 c-23 -17 -29 -18 -25 -6 5 12 2 14 -13 11 -10 -3 -19 -9 -19 -14 0
-19 -49 -8 -66 14 l-16 22 5 -22 c6 -25 4 -27 -35 -37 -23 -5 -26 -4 -21 11 4
10 10 20 14 23 4 3 -2 16 -12 29 -19 24 -20 24 -25 4 -8 -30 -50 -18 -63 18
-9 26 -21 34 -44 30 -4 -1 -15 5 -23 14 -8 8 -32 19 -54 25 -22 6 -46 17 -54
25 -8 8 -22 15 -31 15 -12 0 -15 6 -10 20 4 14 1 22 -11 27 -15 6 -13 8 11 15
16 4 34 4 39 -1 6 -5 26 -8 44 -6 24 1 42 -6 65 -26 18 -16 35 -29 40 -29 12
0 8 18 -5 22 -7 3 -8 10 -4 17 7 10 10 10 16 1 5 -8 16 -9 31 -5 l24 8 -25 10
c-34 14 -3 21 32 8 20 -7 25 -15 21 -34 -3 -14 0 -28 6 -31 10 -6 16 13 12 37
-2 14 24 6 106 -33 46 -23 88 -38 93 -35 5 3 9 40 9 83 0 70 6 112 17 112 2 0
1 -13 -2 -30z m-794 10 c0 -5 -2 -10 -4 -10 -3 0 -8 5 -11 10 -3 6 -1 10 4 10
6 0 11 -4 11 -10z m414 -36 c3 -8 2 -12 -4 -9 -6 3 -10 10 -10 16 0 14 7 11
14 -7z m-3474 -44 c0 -5 -5 -10 -11 -10 -5 0 -7 5 -4 10 3 6 8 10 11 10 2 0 4
-4 4 -10z m11 -55 c1 -8 2 -21 3 -27 2 -14 -32 -43 -41 -35 -3 3 -1 12 3 19 9
14 11 19 13 43 0 8 6 15 11 15 6 0 11 -7 11 -15z m64 -2 c-24 -14 -26 -18 -12
-21 9 -2 17 -8 17 -13 0 -12 -7 -11 -31 1 -26 15 -24 27 9 38 42 16 50 13 17
-5z m-110 -53 c1 -11 -2 -20 -6 -20 -3 0 -9 -9 -12 -21 -3 -12 -10 -18 -16
-15 -6 4 -6 18 -1 36 16 54 32 63 35 20z m515 10 c0 -5 -2 -10 -4 -10 -3 0 -8
5 -11 10 -3 6 -1 10 4 10 6 0 11 -4 11 -10z m-45 -30 c-10 -11 -21 -18 -23
-15 -3 3 3 12 14 20 27 20 30 18 9 -5z m55 0 c0 -5 -7 -10 -16 -10 -8 0 -12 5
-9 10 3 6 10 10 16 10 5 0 9 -4 9 -10z m3431 -27 c-12 -20 -14 -14 -5 12 4 9
9 14 11 11 3 -2 0 -13 -6 -23z m-3551 -3 c0 -5 -4 -10 -10 -10 -5 0 -10 5 -10
10 0 6 5 10 10 10 6 0 10 -4 10 -10z m-40 -20 c0 -5 -9 -10 -20 -10 -11 0 -20
5 -20 10 0 6 9 10 20 10 11 0 20 -4 20 -10z m-322 -27 c-2 -16 -10 -31 -18
-35 -12 -5 -12 -7 3 -7 12 -1 17 -9 17 -27 0 -19 -4 -25 -15 -20 -8 3 -15 0
-15 -7 0 -8 -3 -7 -9 2 -5 8 -7 29 -5 45 3 17 6 38 6 46 1 15 16 30 31 30 5 0
7 -12 5 -27z m122 13 c0 -3 -4 -8 -10 -11 -5 -3 -10 -1 -10 4 0 6 5 11 10 11
6 0 10 -2 10 -4z m36 -10 c8 -8 14 -20 14 -27 0 -7 -3 -9 -7 -6 -3 4 -12 2
-19 -4 -16 -13 -48 -4 -39 11 4 6 11 8 16 5 5 -4 9 3 9 14 0 25 6 26 26 7z
m136 -8 c-9 -9 -15 -9 -24 0 -9 9 -7 12 12 12 19 0 21 -3 12 -12z m-77 -8 c3
-5 -1 -10 -9 -10 -9 0 -16 5 -16 10 0 6 4 10 9 10 6 0 13 -4 16 -10z m42 -6
c-3 -3 -12 -4 -19 -1 -8 3 -5 6 6 6 11 1 17 -2 13 -5z m3474 -57 c-10 -9 -11
-8 -5 6 3 10 9 15 12 12 3 -3 0 -11 -7 -18z m-3759 -69 c-7 -7 -12 -8 -12 -2
0 14 12 26 19 19 2 -3 -1 -11 -7 -17z m-202 -58 c-20 -13 -43 -13 -35 0 3 6
16 10 28 10 18 0 19 -2 7 -10z"/>
<path d="M5530 7455 c7 -8 17 -12 22 -9 6 4 5 10 -3 15 -22 14 -33 10 -19 -6z"/>
<path d="M5584 7391 c26 -27 44 -37 55 -33 13 6 12 7 -6 10 -12 2 -25 12 -28
23 -4 11 -11 17 -16 14 -5 -4 -12 1 -15 9 -3 9 -11 16 -17 16 -6 0 6 -18 27
-39z"/>
<path d="M5640 7399 c0 -5 -4 -7 -10 -4 -5 3 -10 2 -10 -3 0 -5 11 -9 25 -9
20 0 23 2 14 13 -14 17 -19 18 -19 3z"/>
<path d="M5710 7330 c0 -5 10 -10 23 -10 18 0 19 2 7 10 -19 13 -30 13 -30 0z"/>
<path d="M900 7493 c0 -5 9 -14 20 -21 11 -7 20 -8 20 -2 0 5 -9 14 -20 20
-11 6 -20 7 -20 3z"/>
<path d="M5176 5805 c-3 -9 0 -15 9 -15 16 0 20 16 6 24 -5 3 -11 -1 -15 -9z"/>
<path d="M5177 5523 c-4 -3 -7 -11 -7 -17 0 -6 5 -5 12 2 6 6 9 14 7 17 -3 3
-9 2 -12 -2z"/>
<path d="M5180 5480 c-13 -8 -12 -10 3 -10 9 0 17 5 17 10 0 12 -1 12 -20 0z"/>
<path d="M857 5261 c3 -11 11 -26 19 -32 23 -19 18 15 -5 35 -19 17 -19 17
-14 -3z"/>
<path d="M905 4540 c-3 -5 -1 -10 4 -10 6 0 11 5 11 10 0 6 -2 10 -4 10 -3 0
-8 -4 -11 -10z"/>
<path d="M921 4504 c0 -11 3 -14 6 -6 3 7 2 16 -1 19 -3 4 -6 -2 -5 -13z"/>
<path d="M885 4160 c-3 -5 -1 -10 4 -10 6 0 11 5 11 10 0 6 -2 10 -4 10 -3 0
-8 -4 -11 -10z"/>
<path d="M920 3055 c-7 -8 -8 -15 -2 -15 5 0 15 7 22 15 7 8 8 15 2 15 -5 0
-15 -7 -22 -15z"/>
<path d="M892 3030 c0 -14 2 -19 5 -12 2 6 2 18 0 25 -3 6 -5 1 -5 -13z"/>
<path d="M910 3019 c0 -5 5 -7 10 -4 6 3 10 8 10 11 0 2 -4 4 -10 4 -5 0 -10
-5 -10 -11z"/>
<path d="M3491 5253 c-30 -12 -70 -57 -86 -95 -47 -117 -64 -555 -30 -768 20
-127 65 -234 106 -256 73 -37 132 2 175 116 38 99 48 191 47 440 0 258 -8 333
-50 457 -25 77 -29 83 -65 98 -39 15 -72 18 -97 8z m100 -1087 c-6 -8 -22 -16
-34 -20 -21 -5 -21 -4 3 14 29 23 48 26 31 6z"/>
<path d="M2538 5383 c6 -2 18 -2 25 0 6 3 1 5 -13 5 -14 0 -19 -2 -12 -5z"/>
<path d="M5173 4610 c0 -25 2 -35 4 -22 2 12 2 32 0 45 -2 12 -4 2 -4 -23z"/>
<path d="M5171 4394 c0 -11 3 -14 6 -6 3 7 2 16 -1 19 -3 4 -6 -2 -5 -13z"/>
<path d="M5200 4321 c0 -5 5 -13 10 -16 6 -3 10 -2 10 4 0 5 -4 13 -10 16 -5
3 -10 2 -10 -4z"/>
<path d="M5161 2954 c0 -11 3 -14 6 -6 3 7 2 16 -1 19 -3 4 -6 -2 -5 -13z"/>
<path d="M5171 1554 c0 -11 3 -14 6 -6 3 7 2 16 -1 19 -3 4 -6 -2 -5 -13z"/>
<path d="M860 1619 c0 -11 5 -17 10 -14 6 3 10 13 10 21 0 8 -4 14 -10 14 -5
0 -10 -9 -10 -21z"/>
<path d="M880 1569 c0 -5 5 -7 10 -4 6 3 10 8 10 11 0 2 -4 4 -10 4 -5 0 -10
-5 -10 -11z"/>
<path d="M933 1524 c-3 -8 -1 -29 5 -47 9 -31 10 -31 10 16 -1 49 -4 58 -15
31z"/>
<path d="M887 1050 c3 -11 2 -28 -2 -37 -5 -10 -10 -26 -12 -36 -3 -17 -1 -17
12 -3 16 16 21 96 6 96 -5 0 -7 -9 -4 -20z"/>
<path d="M877 916 c-4 -10 -1 -13 9 -9 7 3 14 9 14 14 0 14 -17 10 -23 -5z"/>
<path d="M4617 910 c3 -11 9 -17 15 -14 5 3 4 12 -3 20 -16 19 -18 18 -12 -6z"/>
<path d="M5021 874 c0 -11 3 -14 6 -6 3 7 2 16 -1 19 -3 4 -6 -2 -5 -13z"/>
<path d="M4690 820 c0 -5 5 -10 10 -10 6 0 10 5 10 10 0 6 -4 10 -10 10 -5 0
-10 -4 -10 -10z"/>
<path d="M4920 820 c0 -5 5 -10 11 -10 5 0 7 5 4 10 -3 6 -8 10 -11 10 -2 0
-4 -4 -4 -10z"/>
<path d="M4833 813 c-21 -8 -15 -18 10 -19 14 -1 24 4 24 12 0 14 -12 17 -34
7z"/>
<path d="M4955 810 c3 -5 11 -10 16 -10 6 0 7 5 4 10 -3 6 -11 10 -16 10 -6 0
-7 -4 -4 -10z"/>
</g>
</svg>
