<svg xmlns="http://www.w3.org/2000/svg" version="1.0" viewBox="0 0 523 785">
   <path
      d="M249 123h26l7 1 8 1 3 1q2-1 2 1l3 3q2 0 4 2l4 2 2 1 1 1q2-1 4 1 4 3 4 1 2-3 2 1l3 3q2 2 1 3l2 1 2-1h1l1 1 2 3q7 5 8 8l1 2q2-1 2 2l1 4 1 2h1q3 0 1 3h-1l-1-1v3l1 5-2-4q-2-9-6-7-3 0 0 6 3 5 1 6l1 2 2 3q0 6-3 6l1-2 1-2-1-2-1-1c-1 0-2 6-1 7q1 2 5-1 2-2 10-2 11-1 14 6 2 5-3 5-3-1-4 1-2 5 1 1l2-2-2 5-1 5 1-1 1-1 1 1 1 3q2 1 1 3-1 4-3 2l-1-2c-1 0-1 6 1 8h2q1 5-2 5-1-1-1 2 2 4-1 4h-3c-1-2-14-1-14 0l-3 1-2-1-1-1q-2 0-2 2 1 2-3 3h-7l-3 1q0 2 2 1 3-1-3 3l-2 1q2-3-1-2l-1 3-5 4q-2-1-2 1l-1 1-2 2-3 2-2 3-2 3c-1-1-3 3-3 4v2l-1-1-1-2-1 1q1 1-1 1-3-1 0 2 2 1-1 1l-1-1-1-1-1 1q1 2-3 3l-4 1-1-3q-3-6-1-11l2-4 4-4c5-4 14-13 13-14l6-7 3-3 5-3q2 0 1 1v1q2-1 1-4-3 0 6-9l8-9 3-5 3-4h-2q-2 1-3-6v-6q-1-2-1 1v8q0 4-2 7l-3 2 1-2 2-4 1-2-2 2-5 5q-6 4-1 3 3-2 0 1l-5 3c-3 0-15 12-16 15l-10 11c-1 0-10 10-10 12l-2 1h-2l-1 1-1-2v-4l-2-4q0-3 0 0l-2 2 1 2q3 1 1 5l-2 4q-1-1-1 1v1h-2l3 2h3-3l-4-1-2-1-1-1 1-1-1-2-3-2-4-3c-2-3-10-9-9-7q0 2-3 0v-2q3-1-2-4-7-5-1-2h3l-5-3-10-6-2-2 3 4 4 5 4 6 3 4 2 3 2 4 4 6 4 5 1 1 5 4q1 1-1 1c-2-1 0 3 3 4q3 1 2 3l1 1 1 2 1 2q2 2 2-1l1-5q0-2 1-1l2-1q3-1 5 3l2 6 8 18c1 6 11 12 15 10h9l9-2 6-2 4-2q2 0-1 2-7 3 2 0l7-1 1-1h2q4-1 7-6c8-13 8-13 7-22q-1-9 2-9l3-4q0-4-3-4-3-1-1-2 2-5-1-6-2-2 3-3l3-1h2v2l-1 5q0 5-1 1-3-3-3 1-1 2 1 3l2 2q0 6 2 8l1 4q1 6 4 5v-1l-2-2v-4l1-2q3 0 1 2l1 1 1 3 5 4 4 4 1 3q3 2 1 2-1-1-1 1l1 3v2l-2 2-1 1h-3q-3-2 0 3c1 3 0 8-1 7q-1-2-1 1v1l-1-1-2 1h-1q-2-4-6 0v2l1-1h2q3 3-1 7-5 5-2 5v2l-1 4 1 2h2l-1 1-1 2v1q-1-1-1 1 1 2-3 2l-4-1v-1q2 0 1-1l-2-4-1-2-1 1-3-2-4-1h-4l-3-1q-4-1 0-1t3-2l-2-1-2 1-4 1q-3-1-4 1h-3l-7-1-8-2q-1-2-1 1v2h-2l1 1v1l-1 7-1 7-1 2q0 4-4 7c-4 1-4-4 0-5q6-4-1-2l-4 3-1 2-6 3-6 3-6 3-4 1-3-1q-3 0-3-2v-3q-1-2-3 1l1 2 1 2-1 1-1 3-2 3-1-1c1-1-3-5-4-4q-2 3 0 5h-1l-6-2q-5-3-3 0l3 1q3 0 1 1-6 0-8-4 1-2-1-2l-1-2q1-3-2 0-1 3-2-1l-2-1-2-1q0-2-2-1l-2-1h-2q-2 2-2-10 0-6-3-8-4-3-1-4v-1l3-2 4-2-3 1h-5l-1 2h-1l-11-2-1-1q2-3-3-1h-3l-1-1-1 2-3 2-4 1q1 3-2 0h-7v1l3 1 2 1-2 1-2 1-2 1-1 1q0 2-1 1l-1 2v1l-1 1h2q3-3 1 1-1 2-6 1l-1-2-1-1-4-2-3-2-2-2h-3l-5-1-5-1v-8q2-3 3 0l3 4 2 3v-3l-1-7-1-2q0 5-4 0v-3q3-4 1-6l-1 1q1 2-1 3l-2 2v-4q-1 3-1-1v-2q3 0 1-1v-2l6 5 2 4 3 1-2-2-1-2-2-3q-2 0-2-4-1-4-3-3l1 1 1 1q0 2-4 0v-3q-3-5 3-5 3 1 5-2 1-3 4-3 2 0 2-2v-8q-1 2-1-2v-4l4 2q7 4 7 1t2 0l1 1h2l3 1-1-1-1-3 2 1 13 14 1 1v3q0 3 2 4 3 2 2-1c-1-4 9 0 11 4l4 4q2 0 1 2l2 1h2v2l6 1q6 0 4 1t1 1l8 1h5l4-5q4-8 2-1-3 5 2-1l2-6v-10l2 1h5q5-4 0-3h-1l-1-2q0-2 1-1l2-1-4-1h-3l2-2q3-1 2-3-1-3-1-1l-2 1-1 2q2 3-1 0h-2l1 1q2 1-1 1l-1 2q1 3-3 0c-1-2-6-3-5-2l-5-1-9-6-4-4 1 3v-1q-6-6-11-13-2-5 2 1l4 5q1 2 4 0 1-2 1 1-1 3 1 3l4 2q4 3-2-4l-3-6-3-2-2-2q-2-5-5-6-1 2 2 3l1 3q-2 0-5-7-1-7-3-4v1l1 2-2 1-1 1q1 2-2-1l-3-3 3 1q5 3 0-2-6-5-7-3l2 2h-2q-8-1-4-2 3-2-2-3c-1-1-10 3-10 4l-1 2 1 4q2 3 2-1l1-5v1l1 3q3 0-1 3-2 2-2 7v5l-2 2q1 3-4 1l-3-2-1-1-3-3q0-3-2-2h-2q-1-1-1 1c2 5-1 1-2-4q-1-5-3-5l-2 1v1l-1-2v-3q-1-2-1 1 2 3-1 0l-4-2v2l4 5 3 4 2 1q-5 0-8-5 0-3-2-3-2 1-2-2l-1-2-3-6 1 2 3 3-1-3c-2-4-1-13 2-16q1-4 3-2l2-1 1-1 1-3q1-9 2-7l1-3 1-3v-3l1-3q2-1 1-3c0-2 5-14 9-17q2-2 3-5l2-3c3-2 8-8 8-10l5-4 4-4q2-4 9-7l5-2c2-2 12-6 13-5l4-1 14-2 11-1zm-50 9-2 1 1-1zm-18 15-2 3q-2 0 2-4 3-3 0 1m-13 18-1 2v-2l1-2zm-4 6zq2-2 1 1m27 58h-1zm159 6q1 1-1 1-2-2 0-2zm-102 1-1 1-1-1 1-1zm114 4q-1 2-1-1t1-1zm-211 3q-1 1-2-1v-2zm103 1q4 5 1 5l-1-1q1-2-1-2l-3-3q-1-3 4 1m27-2-1 1-1-1 1-1zm-3 5c0 2-5 3-6 1l1-2 2-1 2-1zm-120 2 2 2q3-1 0 2-2 3-4 0c-2-2-1-8 1-6zm3 0-2-1q0-3 1-1zm192 5q-2 1-2-3 1-3 2 0zm-81-2q-5 2-2 0l3-1zm-86 3-2-1h1zm77-1-1 1-1-1 1-1zm110 5h-1l-1-3h1zm-72 3-2 1-1-1zm50 2-1 4q-1 7-4 8v-6l-1-1 1-2q0-2 3-3 2 1 1-2h1zm-64 18v3l-1-5zm44 30-1 1-1-1 1-1zm-11 1q1 1-1 1-2-2 0-2zm29 5 1 2q2 1 0 2h-2l1 2v1l-3-3v-5q3-2 3 1m-40 1q0 2 0 0v-1zm-87 7-1 5-1-1 2-8zm-23 8q-2 2-3 0h-1v-1c1-2 5-1 4 1m10-2h-1zm-4 4q0 2 0 0 3-3 5 2l2 2 1 2-1 2-1 10-1 2q-3-1-1 5l1 1 3-2 1 1 1 1 1-3q0-3 1 1v7q2 1-1 4l-3 2q-1 4-3 1c0-3-3 1-4 4l-2 4v4l1 1q3 0 2 5v3h-2q-1-2-1 2l1 2v2h-2q-1-2-1 1 0 2-2-1-3-5 0-4 3 0 0-2-1-3-1 0-2 2-5-4v-2l-1-2-1-7q-1-7-2-3-1 0-1-8l-1-10q-2 0 1-3h3l1 1q1-1 1 1-1 2-2 1-3 1 0 5 2 3 3-4 0-5-2-6l-2-2h1l1-1v-3q1-3-3 0l2-6q0-3 3-3 2 0 2-2v1q1 2 3-1 5-4 5-1m-9 0-1 1-1-1 1-1zm141 3 3 6 1-2q0-3 1-2h4l-1 8-2 8v12h1l-1 1-1 2q1 1-1 1l-1 1c2 1 2 6 0 7l-1 5q0 3-2 3l-1 2-1 1-2 6-1 6-2 3q-1 2-1-2l2-5 1-12v-3l2 2q2-1-1-5l-2-5-3-9c-3-5-6-14-6-18l1-1 1 4v4l1-4v-5q0-3 1-1l2 1-1-2v-4l1-3h3q6-3 6 0m-50 2c1 1-4 3-5 2q-2 0 1-2zm4 1-1 1-1-1 1-1zm-53 4v1l-2-1 1-1zm49 0q1 1-1 1l-1-1zm-15 1-2 1-1-1 2-1zm6 0q1 1-1 1-3 0-1-1zm0 3h-1zm-30 9v3l-1 1q-2 1-1 7v3l-1 3-2 7q-1 4-2 1l-1-7q-1-5-1-2-3 5-5-4-4-9 3-10l5-3q-1-1 3-1 3 0 3 2m13 2 2 3-1 3 1 5 2 3-1-1h-2l1 2v2l-1 3-4 10-2-5q0-6-2-4l-1 1h-1q-1 3-1 0l-1-4-2-8q0-4 1-3 1 5 2-4 1-8 6-6 4-1 4 3m27 12-2 2h-2q-1 4 1 6 2 1-1 4l-1-1q1-4-3-7l-4-1c-2 1-2-5 0-8l1-3q1-2 2-1c1 2 7 1 7-1 1-2 3 6 2 10m18-3-2 4-2 3v-6l-2 3q-1 6-4 8l-2 1v-3l1-3v-2l-2-4q0-4 2-5l4-2v3q0 2 2-1l2-3 1 3zm22 3v2l-2-4q0-2 1-1zm-23 5zv-1zm-17-1-2 2q-2-2 1-3zm-9 2-1 1-2-1 1-2zm-39 1-1 1-1-2h1zm58 4q-3 2-1-1l2-1z"
      style="stroke-width:.1" />
</svg>