<svg xmlns="http://www.w3.org/2000/svg" viewBox="0 0 16 16" id="R--Streamline-Font-Awesome" height="16" width="16">
  <!--! Font Awesome Free 6.5.2 by @fontawesome - https://fontawesome.com License - https://fontawesome.com/license/free (Icons: CC BY 4.0, Fonts: SIL OFL 1.1, Code: MIT License) Copyright 2024 Fonticons, Inc.-->
  <path
    d="M4.639335 0.16000000000000003c-1.235315 0 -2.239665 1.00435 -2.239665 2.23967v12.318175c0 0.61941 0.500425 1.119835 1.119835 1.119835s1.119835 -0.500425 1.119835 -1.119835v-4.479335h3.3350050000000007l3.5869700000000004 5.12324c0.353445 0.507425 1.0533400000000002 0.629905 1.560765 0.27646000000000004s0.6299100000000001 -1.053345 0.27646000000000004 -1.56077l-2.946565 -4.206375c1.84423 -0.7488900000000001 3.146035 -2.5581250000000004 3.146035 -4.67181C13.59801 2.4171650000000002 11.340845000000002 0.16000000000000003 8.558755 0.16000000000000003H4.639335Zm3.9194200000000006 7.838840000000001H4.639335V2.39967h3.9194200000000006c1.5467750000000002 0 2.7995900000000002 1.252815 2.7995900000000002 2.7995850000000004s-1.252815 2.7995850000000004 -2.7995900000000002 2.7995850000000004Z"
    fill="#000000" stroke-width="0.05"></path>
</svg>