<svg xmlns="http://www.w3.org/2000/svg" xml:space="preserve" viewBox="0 0 1025.4 1025.4"><path fill="#eda71b" d="M67.7 512.8A445.4 445.4 0 0 1 513.1 67.4a445.4 445.4 0 0 1 445.3 445.4A445.4 445.4 0 0 1 513.1 958 445.4 445.4 0 0 1 67.7 512.8"/><path fill="#0c1728" d="M938.7 514c0 45.7-7.3 90.6-21.3 133.2-2.8 10.3 34.8 40.2 65 66.4-65 24-99 10.3-102.2 15.8A425.4 425.4 0 0 1 87.7 514c0-93.3 30.7-183.5 86.5-257 5.6-7.8-38.3-50.6-64.8-66.5 82-32 121 5.3 130.6-2.7A425.5 425.5 0 0 1 938.7 514"/><g fill="#f0eadf"><path d="M904.5 698.7c-20.8-5.4-49-19.4-78.5-39-13-8.6-35-22.3-48.6-30.5l-25-15 5.2-7.8c4.1-6.2 4.9-9.5 3.8-16.2-4-25.3-38.6-91-84.2-159.5-11.2-16.9-20-31-19.6-31.3s7.1-2.3 14.8-4.4c31.8-8.5 59-27.7 69.6-49a48 48 0 0 0 5.6-25.2 48.4 48.4 0 0 0-33.3-48.8c-14.3-5.3-63.5-5.9-68.7-.7-6.5 6.5-7.6 26-7.6 138.1v111.8l7.5 13.7c7.4 13.4 11 18 32.3 41.2 5.9 6.5 9.3 11.2 7.5 10.5l-29-12.3a1057 1057 0 0 0-102.6-35.7l-12.4-3.3 13.7-13.8c11-11.1 14-15.6 15-22.7.9-4.9 1.4-63.7 1.3-130.6l-.2-121.8-10.6-14.5-10.6-14.4h85.4c94.7 0 96.9.3 124.8 14 57.7 28.6 75.7 99.5 37.6 148.4-8 10.2-31.3 28.5-46.5 36.5a40 40 0 0 0-12.2 8c0 1 6.7 11.1 15 22.6 19.9 27.8 42 65.2 70.6 119.6a777 777 0 0 0 36.6 63.5c16 22.7 41.6 48.8 61.4 62.7l14.8 10.4-8.4-.1c-4.6 0-15.6-2-24.5-4.4M555.7 867.8c-24-6.6-26.2-14.8-26.2-92.6 0-63.5 1.4-74 11.5-83.4 11.2-10.4 17.5-11.5 92.7-11.1 0 0 42.4-.4 63.6.3a64 64 0 0 1 20.5 6.4c7.3 3.6 30.5 19.8 38.6 36.3 17 34.7 12.2 83.4-11.2 113-7.5 9.6-26 22.7-40.6 28.9-8.7 3.7-16.1 4.1-74.1 4.6-48 .3-67.1-.3-74.8-2.4m137.1-41.4c19.4-10.4 27-26.5 26.1-55-.7-23.5-5.6-35.2-18-43.4-12.3-8-23.9-9.7-67.2-9.6-64 .1-62.8-1-62 64.3l.4 23.2c1.4 15.3 3 14.4 5 17.4 4.6 7.7 14.8 8.7 62 8.2 41.5-.4 45.8-.9 53.7-5m-386.6 31.7a73 73 0 0 1-23-26.5c-3.7-7.2-4.1-13-4.1-58.2 0 0-1.4-37 1.5-46.8s4.6-12.9 4.6-12.9c3.3-5.2 10-13.1 14.9-17.5 17.5-15.7 13.7-15.1 108.1-16.3 58.4-.7 85.6-.3 86.6 1.2 1.5 2.4-27.2 29.4-37 34.9-4.5 2.5-18 3.4-64 4.3-74 1.4-70.4-.7-72.7 41.9-2 38 2.4 51.8 7.6 62 5.6 11.4 42.8 7.2 65.8 7.8 68.3 1.8 61.3-.6 87.4 23.6l16.4 15.1h-86.5l-87-.6c-3.1 0-18.6-12-18.6-12"/><path d="M174.6 728.6q16.6-44.7 23.8-92.5c6-39.5 6.6-59.8 6.6-220 0-137-1.2-139.4-2-146.8-4-41.3-50.7-69.7-53.4-72.2 59.6 7.4 85.6 26 126 65.5 22.4 21.9 43 48 67.6 85A324 324 0 0 0 356 366c.3 0 3.9-5.3 8-11.7C433.7 244.4 473.7 203 528 185a125 125 0 0 1 25.9-6.4c.2.2-3.1 3.6-7.4 7.6a140 140 0 0 0-36.4 52.3c-2.6 7-2.6 7-2.8 148.2-.3 141-.3 127 5.3 134.5 3.1 4 7 8.8 8.7 10.5 3 3.2 3 3.2.6 3.7l-17.1 3.2c-25.1 4.5-59 17.2-86.3 32.2-11 6-13.1 6.8-10.3 3.5.9-1 7.4-11.2 14.5-22.8 12.8-21 12.8-7 13-96.7.1-49.4-.1-89.8-.5-89.8-1.7 0-52.3 71.6-72.7 102.8-6 9.4-6.9 10.2-7.7 8-2-4.6-60-88.5-74.5-107.6C277 364 277 364 277 465c0 111.9-.3 106 6.8 120.2 4.5 9 14 19 23 24a21 21 0 0 1 6 4.2c-.2.3-7.2 5.2-15.8 10.9-18 12-37 26-52.5 38.9-14.3 12-45.8 41.5-59.7 56-6 6.4-10.6 10.6-10.2 9.5"/></g><path fill="#eda71b" d="M462 941.4c1.6.3 5.6.9 8.8 1.2 5.6.7 5.9.6 9.3-2.7a287 287 0 0 0 32.9-43.4c1-1.6 2-.4 7.9 8.6a254 254 0 0 0 24.3 31.8c5.8 6.4 5.8 6.4 14.8 5.4 4.9-.6 9-1 9.3-.8.1.2-12.4 19.4-27.9 42.6a581 581 0 0 1-28.8 41.3l-39.7-62.9-13-20.3q-1-1.5 2.2-.8M563.3 84l-8.7-1.3c-5.6-.6-6-.5-9.3 2.7a287 287 0 0 0-33 43.5c-.8 1.5-2 .3-7.8-8.6a254 254 0 0 0-24.3-31.9c-5.8-6.3-5.8-6.3-14.8-5.3-5 .6-9.1 1-9.3.7A1598 1598 0 0 1 484 41.3 581 581 0 0 1 512.8 0l39.7 62.8 12.9 20.4q1 1.5-2 .8M84 462l-1.3 8.8c-.6 5.6-.5 5.9 2.7 9.3A283 283 0 0 0 129 513c1.5 1 .3 2-8.6 7.9a254 254 0 0 0-31.9 24.3c-6.3 5.8-6.3 5.8-5.3 14.8.6 4.9 1 9 .7 9.3-.1.1-19.3-12.4-42.5-27.9A581 581 0 0 1 0 512.6l62.8-39.7 20.4-13q1.5-1 .8 2.2m857.4 101.2c.3-1.6.9-5.5 1.2-8.7.7-5.6.6-6-2.7-9.3a287 287 0 0 0-43.4-33c-1.6-.8-.4-2 8.6-7.8a254 254 0 0 0 31.8-24.3c6.4-5.8 6.4-5.8 5.4-14.8-.6-5-1-9.1-.8-9.3s19.4 12.4 42.6 27.9a581 581 0 0 1 41.3 28.8l-62.9 39.7-20.3 12.9q-1.5 1-.8-2M619.3 802.3c-3.7-1-9.4-6.2-10.9-9.8a18.5 18.5 0 0 1 6-21.8c3.4-2.7 4.6-3 11-3.1 7.8-.2 4 2 52.1-29 3-2 3-2 1.5 0-.8 1.1-9.3 11.5-18.9 23a207 207 0 0 0-17.3 22.5c.1 3-2 9.6-4 12.4-3.7 5.2-12.6 7.8-19.5 5.8m11.8-11q3-3 3-6c0-3.4-3.3-8-6.7-9.2-3.5-1.4-8.8 1.1-10.9 5-4.8 9.4 7.1 17.6 14.6 10.1M413.7 661c0-11.8 29.6-22.6 45.7-28.9 11.1-4.3 26.7-8.5 35.6-9.6 5.7-.6 5.7-.6 5.7-7s0-6.4-6-6.4c-11.2 0-13-2.2-13-17 0-9.1.2-10 2.6-12.9 2.6-3 2.6-3 28.4-3 14.3 0 26.6.2 27.5.6 3.2 1.2 4.5 5.9 4.5 15.8s-1.3 14.7-4.5 16c-.9.3-4.5.5-8 .5-6.5 0-6.5 0-6.5 6.4 0 6.3 0 6.3 10.8 8 24.7 4 49 15 69.2 31.4 14.7 11.8 14.9 11.2-4.2 11.2-16.5 0-16.5 0-27.4-5.4a153 153 0 0 0-38.9-13.2 177 177 0 0 0-49.5 0 176 176 0 0 0-41.8 14.1c-8.8 4.5-8.8 4.4-22.2 4.5-8.5 0-8 .1-8-5"/></svg>