<?xml version="1.0" encoding="UTF-8" standalone="no"?>
<!-- Created with Inkscape (http://www.inkscape.org/) -->

<svg
   version="1.1"
   id="svg1"
   width="869.43506"
   height="851.09839"
   viewBox="0 0 869.43506 851.09839"
   sodipodi:docname="logo for MRCD inkscape.svg"
   xml:space="preserve"
   inkscape:version="1.4.4 (dcaf3e7, 2026-05-05)"
   xmlns:inkscape="http://www.inkscape.org/namespaces/inkscape"
   xmlns:sodipodi="http://sodipodi.sourceforge.net/DTD/sodipodi-0.dtd"
   xmlns="http://www.w3.org/2000/svg"
   xmlns:svg="http://www.w3.org/2000/svg"><defs
     id="defs1" /><sodipodi:namedview
     id="namedview1"
     pagecolor="#ffffff"
     bordercolor="#000000"
     borderopacity="0.25"
     inkscape:showpageshadow="2"
     inkscape:pageopacity="0.0"
     inkscape:pagecheckerboard="0"
     inkscape:deskcolor="#d1d1d1"
     inkscape:zoom="0.5"
     inkscape:cx="4086"
     inkscape:cy="2739"
     inkscape:window-width="2560"
     inkscape:window-height="1369"
     inkscape:window-x="892"
     inkscape:window-y="-8"
     inkscape:window-maximized="1"
     inkscape:current-layer="g57"
     showguides="true"><sodipodi:guide
       position="1528.9595,1931.9501"
       orientation="1,0"
       id="guide59"
       inkscape:locked="false" /><sodipodi:guide
       position="1103.969,1506.6704"
       orientation="0,-1"
       id="guide60"
       inkscape:locked="false" /><sodipodi:guide
       position="449.91453,147.5661"
       orientation="1,0"
       id="guide8"
       inkscape:locked="false" /><inkscape:page
       x="0"
       y="0"
       width="869.43506"
       height="851.09839"
       id="page2"
       margin="0"
       bleed="0" /></sodipodi:namedview><g
     id="g5"
     inkscape:label="logo for icon "
     transform="translate(-2953.3904,-3271.822)"><path
       style="display:inline;opacity:1;fill:#f0eadf;fill-opacity:1;stroke:#000000;stroke-width:40;stroke-dasharray:none;stroke-opacity:1;paint-order:stroke fill markers"
       d="m 3448.3289,4096.6555 c -27.9604,-7.7137 -30.6695,-17.2706 -30.6695,-108.1934 0,-74.1365 1.6935,-86.4025 13.4411,-97.3544 13.0644,-12.1796 20.515,-13.4264 108.2712,-12.9724 0,0 49.4713,-0.4534 74.2617,0.3842 5.3087,0.1794 15.3936,3.3928 23.9198,7.4909 8.5262,4.0981 35.6078,23.0442 45.1162,42.3583 19.9194,40.4621 14.2826,97.4179 -13.0578,131.9378 -8.825,11.1425 -30.4097,26.4839 -47.4251,33.7076 -10.1556,4.3114 -18.8757,4.8524 -86.579,5.3718 -56.097,0.4304 -78.3428,-0.2656 -87.2786,-2.7309 z m 160.0551,-48.3746 c 22.6056,-12.101 31.5351,-30.9057 30.5079,-64.2469 -0.8458,-27.4507 -6.5189,-41.0402 -21.1467,-50.6555 -14.2451,-9.3637 -27.7996,-11.3035 -78.3735,-11.216 -74.6261,0.1291 -73.2992,-1.249 -72.2893,75.083 0.3744,28.295 0.1848,24.536 0.4126,27.1167 1.5708,17.7908 3.5453,16.7341 5.7152,20.2899 5.4785,8.9773 17.3105,10.0989 72.4354,9.5384 48.48,-0.4931 53.5041,-0.9663 62.7384,-5.9096 z"
       id="path54-5-7"
       inkscape:label="D"
       sodipodi:nodetypes="ssssszsssssssssssssss"
       inkscape:export-filename="logo-as-icon"
       inkscape:export-xdpi="96"
       inkscape:export-ydpi="96" /><path
       style="display:inline;opacity:1;fill:#f0eadf;fill-opacity:1;stroke:#000000;stroke-width:40;stroke-linejoin:round;stroke-dasharray:none;stroke-opacity:1;paint-order:stroke fill markers"
       d="m 3166.9839,4085.3753 c -12.4257,-10.0792 -19.2856,-16.1965 -26.8852,-30.938 -4.3241,-8.3874 -4.8,-15.1202 -4.8,-67.8934 0,0 -1.5975,-43.1512 1.7515,-54.6417 3.349,-11.4904 5.3556,-15.0978 5.3556,-15.0978 3.909,-6.1363 11.7465,-15.3279 17.4168,-20.4256 20.4003,-18.3407 15.9396,-17.6675 126.2554,-19.0515 68.2208,-0.8558 99.9531,-0.4177 101.0736,1.3955 1.7304,2.7996 -31.7037,34.3684 -43.1053,40.7007 -5.3166,2.9527 -21.0127,4.0069 -74.7305,5.019 -86.4804,1.6295 -82.3087,-0.7756 -84.945,48.9722 -2.3546,44.4302 2.7815,60.4656 8.8013,72.5094 6.6215,13.2477 50.0438,8.3286 76.9192,9.0407 79.7696,2.1136 71.5709,-0.7804 102.0381,27.4692 l 19.0921,17.7024 -100.9839,-0.023 c 0,0 -65.3238,-0.3835 -101.4999,-0.6426 -3.7045,-0.027 -21.7538,-14.0952 -21.7538,-14.0952 z"
       id="path55-1-9"
       inkscape:label="C"
       sodipodi:nodetypes="ssszssssssssssccss" /><path
       style="display:inline;opacity:1;fill:#f0eadf;fill-opacity:1;stroke:#000000;stroke-width:40;stroke-linecap:round;stroke-linejoin:round;stroke-dasharray:none;stroke-opacity:1;paint-order:stroke fill markers"
       d="m 3657.9743,3800.5206 6.0384,-9.1246 c 4.8197,-7.2831 5.729,-11.1089 4.5062,-18.9581 -4.5981,-29.5128 -45.136,-106.2701 -98.3461,-186.2151 -13.1228,-19.7161 -23.428,-36.1688 -22.9004,-36.5616 0.5274,-0.393 8.2994,-2.6929 17.2711,-5.1111 37.1231,-10.0064 68.968,-32.4148 81.3359,-57.2339 5.0332,-10.1005 6.4852,-16.746 6.4426,-29.4859 -0.093,-27.9237 -13.3297,-47.3139 -38.8427,-56.9023 -16.7011,-6.2769 -74.1255,-6.9269 -80.16,-0.9076 -7.6671,7.6476 -8.9285,30.4379 -8.9285,161.3277 v 130.5723 l 8.7563,15.93 c 8.629,15.6984 12.8596,21.1104 37.6701,48.1891 6.9012,7.5321 10.8538,13.0193 8.7835,12.1939 -2.0705,-0.8255 -17.3158,-7.2987 -33.8788,-14.385 -28.5387,-12.2098 -88.3809,-32.986 -119.8108,-41.5964 l -14.4106,-3.9478 15.9701,-16.1279 c 12.7781,-12.9045 16.3001,-18.1921 17.6215,-26.4558 0.9083,-5.6805 1.548,-74.3265 1.4216,-152.547 l -0.2299,-142.2189 -12.379,-16.8583 -12.3792,-16.8583 99.7412,0.029 c 110.5109,0.033 113.0874,0.3236 145.694,16.4292 67.3615,33.2722 88.3839,116.0956 43.9447,173.1307 -9.3396,11.9868 -36.579,33.3622 -54.3451,42.6459 -7.8153,4.0837 -14.2122,8.3226 -14.2154,9.4197 0,1.097 7.8426,12.9407 17.4354,26.3192 23.3064,32.5039 52.9387,90.6112 66.5439,129.0785 27.565,67.0919 34.0552,86.3461 76.5045,196.4888 -64.293,-67.2378 -87.5945,-96.0181 -144.8545,-130.2584 z"
       id="path53-5-2"
       inkscape:label="R"
       sodipodi:nodetypes="csssssssssscssssscssscccsssscsccc" /><path
       style="display:inline;fill:#f0eadf;fill-opacity:1;stroke:#000000;stroke-width:40;stroke-linecap:round;stroke-linejoin:round;stroke-dasharray:none;stroke-opacity:1;paint-order:stroke fill markers"
       d="m 2983.2401,3934.1078 c 12.8982,-34.792 22.2121,-70.9322 27.8368,-108.0135 7.0066,-46.1925 7.7178,-69.8292 7.7306,-256.9206 0.012,-160.028 -1.4937,-162.7977 -2.3538,-171.4538 -4.7878,-48.1931 -40.0238,-71.1789 -43.0672,-74.0327 69.5154,8.6609 80.6731,20.1313 127.8638,66.266 26.0773,25.4937 50.0805,56.103 78.8898,99.1974 7.9308,11.8631 14.6823,21.5809 15.0034,21.5953 0.3211,0.014 4.4942,-6.1394 9.2735,-13.6749 81.4657,-128.4446 128.0956,-176.5842 191.4421,-197.6397 12.3623,-4.1091 29.3338,-8.3088 30.3013,-7.4981 0.2164,0.1813 -3.6432,4.164 -8.5769,8.8506 -20.4027,19.3806 -34.4856,39.647 -42.4884,61.1442 -3.043,8.174 -3.043,8.174 -3.3545,172.9675 -0.3116,164.7935 -0.3116,148.4455 6.2711,157.0575 3.6204,4.7366 8.1708,10.2908 10.112,12.3429 3.5295,3.7309 3.5295,3.7309 0.7352,4.2858 -1.5368,0.3053 -10.5379,1.9635 -20.0024,3.6851 -29.3142,5.332 -68.8614,20.1079 -100.7309,37.6356 -12.8685,7.0776 -15.3469,7.9211 -12.0236,4.0927 0.979,-1.1279 8.5513,-13.0856 16.8274,-26.5727 15.0473,-24.5219 15.0473,-8.174 15.2503,-112.9763 0.1109,-57.6412 -0.1704,-104.8023 -0.6266,-104.8023 -1.9808,0 -61.0105,83.5199 -84.8195,120.0095 -7.1405,10.9435 -8.06,11.885 -9.0968,9.3148 -2.1707,-5.3802 -69.9639,-103.3842 -86.8954,-125.6187 -3.8473,-5.0522 -3.8473,-5.0522 -3.8473,112.731 0,130.7285 -0.3859,123.856 7.8865,140.4605 5.2689,10.5752 16.2698,22.0652 26.8323,28.0251 3.9839,2.2478 7.129,4.426 6.9893,4.8403 -0.1399,0.4143 -8.3991,6.1407 -18.3538,12.7254 -21.1084,13.9624 -43.2086,30.3404 -61.305,45.4319 -16.7936,14.0049 -53.5313,48.4829 -69.7408,65.4509 -7.0555,7.3858 -12.4387,12.3778 -11.9625,11.0933 z"
       id="path51-4-7-5"
       inkscape:label="M"
       sodipodi:nodetypes="sssscsssssssssssssssssssssssssssss" /></g></svg>
